<svg id="Layer_1" viewBox="0 0 185 185" xmlns="http://www.w3.org/2000/svg"><defs><style>.cls-1{fill:#d9e2e9;}.cls-2{fill:#e8c79c;}.cls-3{fill:#00063c;}.cls-4{fill:#566ef5;}.cls-5{fill:#2f3a5a;}.cls-6{fill:#8fb6f8;}.cls-7{fill:#e51b3a;}.cls-8{fill:#d0aa79;}.cls-9{fill:#39476b;}.cls-10{fill:#273149;}.cls-11{fill:#6c95f8;}.cls-12{fill:#fc3133;}</style></defs><title></title><circle class="cls-1" cx="92.5" cy="92.5" r="90"></circle><path class="cls-2" d="M92.6,71.45C86.66,65.76,72.51,57,72.51,57a74.39,74.39,0,0,0-4.21-9.41V62.38c3.64,7.13,13.26,13.68,15.93,15.18A91.55,91.55,0,0,0,108,98l15.69-6.24C112.28,79.43,92.6,71.45,92.6,71.45Z"></path><path class="cls-3" d="M108,98.72a.73.73,0,0,1-.35-.09A93.09,93.09,0,0,1,83.74,78.14c-2.65-1.51-12.36-8.07-16.11-15.42a.77.77,0,0,1-.08-.34V47.59A.75.75,0,0,1,69,47.22a72.35,72.35,0,0,1,4.16,9.28C75,57.67,87.37,65.46,93,70.81c1.77.73,20.33,8.66,31.18,20.42a.72.72,0,0,1,.18.67.73.73,0,0,1-.45.53l-15.69,6.24A.87.87,0,0,1,108,98.72ZM69.05,62.2c3.67,7,13.33,13.47,15.55,14.7a.91.91,0,0,1,.21.18A92.49,92.49,0,0,0,108,97.14l14.33-5.69c-11.22-11.59-29.83-19.23-30-19.31a1,1,0,0,1-.24-.15c-5.81-5.57-19.83-14.27-20-14.35a.69.69,0,0,1-.13-.11.84.84,0,0,1-.18-.28c-.06-.17-1.23-3.36-2.75-6.56Z"></path><polygon class="cls-4" points="111.34 80.3 98.14 92.4 105.71 99.78 125.49 92.06 111.34 80.3"></polygon><path class="cls-3" d="M105.71,100.28a.52.52,0,0,1-.35-.14L97.8,92.76a.52.52,0,0,1-.16-.37.58.58,0,0,1,.17-.36L111,79.93a.5.5,0,0,1,.66,0l14.15,11.76a.53.53,0,0,1,.18.47.5.5,0,0,1-.32.38l-19.78,7.72A.39.39,0,0,1,105.71,100.28Zm-6.84-7.87,7,6.78,18.69-7.29L111.35,81Z"></path><path class="cls-2" d="M68.51,116.66l23.21-7.32S85.51,82.11,84.8,80.83L71.4,43.1l-8.65,2.73s-3.23,23,6.66,36.58C69.41,82.41,68.21,92.31,68.51,116.66Z"></path><path class="cls-3" d="M68.51,117.41a.72.72,0,0,1-.44-.14.78.78,0,0,1-.31-.6c-.26-21.86.68-32.23.87-34C58.89,68.9,61.88,46.67,62,45.73a.73.73,0,0,1,.52-.61l8.65-2.74a.75.75,0,0,1,.93.47L85.5,80.55c.85,2,5.93,24.13,7,28.62a.75.75,0,0,1-.5.88l-23.21,7.33A.85.85,0,0,1,68.51,117.41Zm-5.07-71C63.06,49.71,61.19,69.83,70,82a.71.71,0,0,1,.13.53c0,.1-1.15,9.87-.9,33.14l21.59-6.81c-2.47-10.78-6.18-26.56-6.7-27.65a.93.93,0,0,1,0-.1L70.94,44Z"></path><path class="cls-5" d="M86.36,29.14l1,3.4c0-.15-.85-1.19-12.43,2.48l-9.11,3.32a.77.77,0,0,0-.48.54l-.43,2h0l-5.83,2-.1-.27A17.16,17.16,0,0,1,58,37c0-.2,9-4.17,21.54-7.54,0,0,5.73-1.8,6.82-.3Z"></path><path class="cls-3" d="M59.05,43.65a.76.76,0,0,1-.71-.49l-.1-.27a17.7,17.7,0,0,1-1-6c0-.43.06-.77,6.54-3.22,3.4-1.28,8.84-3.19,15.56-5,1.43-.45,6.31-1.81,7.61,0a.68.68,0,0,1,.12.24l1,3.4a.75.75,0,0,1-.49.92.74.74,0,0,1-.76-.19c-.39-.09-2.49-.25-11.68,2.66L66,39.05l-.43,2a.75.75,0,0,1-.49.56l-5.83,2A.67.67,0,0,1,59.05,43.65Zm-.31-6.24A17.89,17.89,0,0,0,59.51,42l4.73-1.61.34-1.61a1.48,1.48,0,0,1,1-1.09l9.11-3.33c6.67-2.11,10-2.74,11.63-2.77l-.59-2c-.58-.46-3.3-.18-5.92.64A141.08,141.08,0,0,0,58.74,37.41Z"></path><path class="cls-6" d="M87.35,32.56s.32.74-.61,1.68a3.73,3.73,0,0,1-.79.68l-.71.47-.32.23-.06,0-.23.15-.25.18-.15.11-.22.16-.29.2-.57.42-.23.17-.66.48-.13.1-.12.09-.13.1-.08.06-.11.08-.25.19-.06,0s-6.7,7.53-7.46,7.92a5.25,5.25,0,0,1-2.48-.28l-.35-.07c-.74-.17-4.43-1.4-6.71,1.57a3.59,3.59,0,0,0-.65,1.53c-.07.34-.24.73-.7.77s-1.39-1.4-2.27-3.07l-.08-.13-.24-.49-.11-.2c-.11-.22-.21-.44-.31-.65a1.87,1.87,0,0,1-.12-.25c0-.06,0-.11-.08-.16-.14-.3-.26-.58-.38-.86s-.27-.64-.38-.92l5.32-1.81A.92.92,0,0,0,65,40.4l.3-1.4a1,1,0,0,1,.61-.69l9-3.29c11.57-3.66,12.38-2.63,12.43-2.47Z"></path><path class="cls-3" d="M63,50.38c-.55,0-1.26-.4-2.89-3.46L60,46.79l-.25-.49-.11-.21c-.12-.24-.23-.46-.33-.68l-.13-.27L59.14,45q-.21-.45-.39-.87c-.15-.34-.28-.66-.39-.95a.78.78,0,0,1,0-.58.78.78,0,0,1,.44-.4l5.32-1.81a.17.17,0,0,0,.13-.14l.3-1.4a1.69,1.69,0,0,1,1.08-1.24l9-3.28c12.67-4,13.16-2.67,13.4-2a.14.14,0,0,0,0,.06,2.37,2.37,0,0,1-.8,2.42,5.43,5.43,0,0,1-.92.79c-.2.12-.43.28-.69.45l-.31.22-.12.08-2.52,1.83-.13.1-.12.08-.58-.5.47.59-.1.07-.51-.56.41.63-.23.18c-2,2.25-6.86,7.64-7.65,8-.61.32-1.49.14-2.89-.18l-.69-.16C69,46,66.6,45.68,65,47.79A2.91,2.91,0,0,0,64.46,49a1.53,1.53,0,0,1-1.36,1.37Zm-2.92-7a1.11,1.11,0,0,0,.07.16c.11.27.24.55.37.84l.08.17.11.22c.1.23.21.44.31.65l.1.19c.09.19.17.34.25.48l.06.13A14.06,14.06,0,0,0,63,48.72h0a4.4,4.4,0,0,1,.8-1.84c1.6-2.09,4-2.73,7.27-1.9l.65.15a8.22,8.22,0,0,0,1.9.3c.53-.36,4.55-4.75,7.21-7.74l.12-.1.31-.24.12-.09.56.52-.45-.6.09-.07,2.81-2,.54.54L84.49,35l.33-.23.73-.48a3.12,3.12,0,0,0,.6-.52,1.8,1.8,0,0,0,.48-.72c-.73-.07-3.27.09-11.5,2.69l-9,3.27a.25.25,0,0,0-.13.14l-.29,1.4a1.71,1.71,0,0,1-1.12,1.25Zm28-10.8h0Z"></path><path class="cls-3" d="M87.35,33.06a.51.51,0,0,1-.5-.4.52.52,0,0,1,.33-.59.5.5,0,0,1,.63.31.58.58,0,0,1,0,.18A.5.5,0,0,1,87.35,33.06Z"></path><path class="cls-7" d="M81.36,129.72h35C109.12,125.18,95.89,115.15,91,99.2c-.06-.19-26.29,6.14-26.29,6.14s4.82,18.83,15.57,31.06a4.16,4.16,0,0,0,1.12.82Z"></path><path class="cls-3" d="M81.35,138a.77.77,0,0,1-.36-.09,5,5,0,0,1-1.32-1C68.93,124.67,64,105.72,63.94,105.53A.78.78,0,0,1,64,105a.81.81,0,0,1,.47-.34s6.56-1.58,13.13-3.14c3.28-.78,6.57-1.56,9-2.12,4.78-1.11,4.79-1.11,5-.38,4.79,15.51,17.76,25.52,25.07,30.11a.76.76,0,0,1,.32.85.75.75,0,0,1-.72.54H82.1v6.75a.74.74,0,0,1-.37.65A.7.7,0,0,1,81.35,138ZM65.59,105.89c1,3.55,5.83,19.19,15,29.79v-6a.75.75,0,0,1,.75-.75h32.48c-7.55-5.11-18.77-14.72-23.39-28.93C87.57,100.63,74.71,103.69,65.59,105.89Z"></path><path class="cls-2" d="M64.37,118.14l23.21-7.32s-6.22-27.23-6.92-28.51L67.26,44.58l-8.65,2.73s-3.23,23,6.66,36.58C65.27,83.89,64.07,93.79,64.37,118.14Z"></path><path class="cls-8" d="M87.58,110.82l-23.21,7.32c-.29-24.35.89-34.25.89-34.25-9.88-13.6-6.65-36.58-6.65-36.58l4-1.27c-.49,4.61-1.88,23.67,6.77,35.56,0,0-1.19,9.9-.89,34.25l18.85-5.95C87.51,110.49,87.58,110.82,87.58,110.82Z"></path><path class="cls-3" d="M64.37,118.89a.72.72,0,0,1-.44-.14.75.75,0,0,1-.31-.6c-.27-21.86.68-32.23.87-34.05-9.75-13.72-6.75-35.95-6.62-36.89a.73.73,0,0,1,.52-.61L67,43.86a.76.76,0,0,1,.94.47L81.35,82c.86,2,5.94,24.13,7,28.62a.75.75,0,0,1-.5.88L64.6,118.86A.91.91,0,0,1,64.37,118.89Zm-5.07-71c-.38,3.31-2.25,23.43,6.57,35.57A.76.76,0,0,1,66,84c0,.1-1.15,9.87-.9,33.14l21.58-6.81C84.23,99.53,80.52,83.75,80,82.66l0-.1L66.8,45.51Z"></path><path class="cls-5" d="M82.21,30.62l1,3.4c-.06-.15-.85-1.19-12.44,2.48l-9.11,3.32a.75.75,0,0,0-.47.54l-.43,2h0l-5.84,2-.1-.27a17.08,17.08,0,0,1-.94-5.65c0-.2,9-4.17,21.54-7.54,0,0,5.73-1.8,6.81-.3Z"></path><path class="cls-3" d="M54.9,45.13a.75.75,0,0,1-.7-.49l-.1-.27a17.7,17.7,0,0,1-1-6c0-.43.06-.77,6.54-3.22C63,33.9,68.49,32,75.2,30.19c1.44-.45,6.32-1.81,7.62,0a.9.9,0,0,1,.12.24l1,3.4a.76.76,0,0,1-.49.92.73.73,0,0,1-.76-.19c-.39-.09-2.49-.25-11.68,2.66L61.9,40.53l-.43,2a.75.75,0,0,1-.49.56l-5.83,2A.73.73,0,0,1,54.9,45.13Zm-.3-6.24a17,17,0,0,0,.77,4.54l4.72-1.61.35-1.61a1.49,1.49,0,0,1,.94-1.09l9.12-3.33c6.67-2.11,10-2.74,11.62-2.77l-.58-2c-.58-.46-3.31-.17-5.92.64A140.6,140.6,0,0,0,54.6,38.89Z"></path><path class="cls-6" d="M83.2,34s.32.74-.61,1.68a3.64,3.64,0,0,1-.78.68l-.71.47-.33.23,0,0-.23.16-.25.17-.15.11-.22.16-.29.2c-.19.15-.39.29-.57.42l-.24.17-.65.49-.13.09-.12.09-.13.1-.08.06-.11.08-.26.19-.05,0s-6.71,7.53-7.46,7.92a5.25,5.25,0,0,1-2.48-.28L67,47.24c-.75-.17-4.43-1.4-6.71,1.57a3.74,3.74,0,0,0-.66,1.53.82.82,0,0,1-.69.77c-.46,0-1.39-1.4-2.28-3.07l-.07-.13-.25-.49-.1-.2-.32-.65-.12-.25c0-.06,0-.11-.07-.16-.14-.3-.27-.58-.38-.86s-.27-.64-.38-.91l5.32-1.81a1,1,0,0,0,.62-.7l.3-1.4a.93.93,0,0,1,.6-.69l9-3.29C82.34,32.84,83.14,33.87,83.2,34Z"></path><path class="cls-3" d="M58.84,51.86c-.55,0-1.27-.4-2.89-3.46l-.06-.13-.27-.51-.1-.21-.33-.67-.12-.26L55,46.47q-.21-.45-.39-.87c-.15-.34-.28-.66-.39-1a.73.73,0,0,1,0-.58.71.71,0,0,1,.44-.39L60,41.87a.23.23,0,0,0,.14-.15l.3-1.4a1.69,1.69,0,0,1,1.08-1.24l9-3.28c12.68-4,13.16-2.67,13.39-2a.14.14,0,0,1,0,.06,2.36,2.36,0,0,1-.79,2.42,5,5,0,0,1-.92.79c-.2.12-.44.28-.69.45L78.33,39.8l-.1.07-.11.08-.57-.51L78,40l-.21.16c-2,2.26-6.87,7.65-7.66,8.06-.61.31-1.5.13-2.9-.19l-.69-.16c-1.67-.43-4.08-.75-5.7,1.36a2.84,2.84,0,0,0-.52,1.21A1.53,1.53,0,0,1,59,51.85Zm-2.93-7A1.11,1.11,0,0,1,56,45l.38.84.08.17.1.22c.11.23.21.44.32.65l.09.19.25.48s.07.14.08.14a13.81,13.81,0,0,0,1.57,2.51h0a4.16,4.16,0,0,1,.8-1.84c1.6-2.09,4-2.73,7.27-1.9l.64.15a7.83,7.83,0,0,0,1.91.3c.53-.36,4.55-4.75,7.21-7.74a.52.52,0,0,1,.11-.1l.55.53-.46-.6.23-.17.11-.08.56.52-.45-.6,3.35-2.42c.26-.18.51-.35.73-.48a3.45,3.45,0,0,0,.6-.52,1.64,1.64,0,0,0,.47-.72c-.72-.06-3.27.09-11.49,2.69l-9,3.27a.24.24,0,0,0-.13.15L61.59,42a1.73,1.73,0,0,1-1.11,1.26ZM84,34h0Z"></path><path class="cls-3" d="M83.2,34.54a.5.5,0,0,1-.49-.39.51.51,0,0,1,.3-.59.5.5,0,0,1,.65.28.48.48,0,0,1,0,.2A.5.5,0,0,1,83.2,34.54Z"></path><path class="cls-2" d="M116.26,57.79l-3.82,4.5,0,1.92a38.92,38.92,0,0,0-3.47,2.7c-1.34,1.25-.42,2,.86,2.83,0,0-.77,1.67.12,2.42,0,0-2.36.39-.72,2.21,0,0,.34.87-.88,1.72s-.19,3,2.16,4a29.73,29.73,0,0,0,3.79,1.34l-3.81,7.48,17.52,4s.43-11.3.85-13.15a10.35,10.35,0,0,1,2-4.52c2.06-2.17,4.19-4.84,4.48-7.49s1.92-4.89-.69-8.56S121.32,54,119.54,52.75,116.26,57.79,116.26,57.79Z"></path><path class="cls-8" d="M135.36,67.8c-.3,2.65-2.44,5.32-4.49,7.48a10.44,10.44,0,0,0-2,4.53C128.48,81.66,128,93,128,93l-17.51-4L111,88l13.6,3.14s.44-11.29.86-13.15a10.35,10.35,0,0,1,2-4.52c2-2.16,4.19-4.84,4.49-7.49s1.91-4.89-.7-8.56a5.83,5.83,0,0,0-1.3-1.27c2.07.83,3.87,1.83,4.75,3.07C137.26,62.91,135.65,65.15,135.36,67.8Z"></path><path class="cls-3" d="M128.05,93.71a.47.47,0,0,1-.17,0l-17.52-4a.71.71,0,0,1-.51-.41.73.73,0,0,1,0-.66l3.4-6.67c-.67-.22-1.7-.57-3-1.12a4.83,4.83,0,0,1-3.13-3.46,1.93,1.93,0,0,1,.83-1.86c.45-.31.59-.6.6-.77a2,2,0,0,1-.54-2,1.87,1.87,0,0,1,.87-1A3.41,3.41,0,0,1,109,70a2.73,2.73,0,0,1-1.37-1.86,2.28,2.28,0,0,1,.91-1.81,36.35,36.35,0,0,1,3.21-2.54l0-1.51a.75.75,0,0,1,.18-.5l3.71-4.37c.33-1.33,1.34-4.88,2.94-5.49a1.5,1.5,0,0,1,1.44.19,22.37,22.37,0,0,0,3.89,1.3c4,1.14,9.53,2.71,11.42,5.37,2.19,3.07,1.65,5.33,1.17,7.32a14.19,14.19,0,0,0-.34,1.75c-.34,3-2.84,6-4.68,7.92A9.29,9.29,0,0,0,129.63,80c-.34,1.46-.72,9.89-.83,13a.77.77,0,0,1-.3.57A.74.74,0,0,1,128.05,93.71ZM111.63,88.4,127.33,92c.12-2.75.47-10.78.84-12.38a10.6,10.6,0,0,1,2.16-4.88c1.7-1.79,4-4.47,4.28-7a15.72,15.72,0,0,1,.37-1.93c.46-1.93.86-3.59-.93-6.11-1.59-2.24-7-3.78-10.61-4.8a18.27,18.27,0,0,1-4.33-1.51c-.51.05-1.52,2.09-2.12,4.6a.75.75,0,0,1-.15.31l-3.65,4.28,0,1.63a.77.77,0,0,1-.33.64,37.14,37.14,0,0,0-3.38,2.64c-.42.39-.42.57-.42.59,0,.26.81.8,1.19,1.06a.75.75,0,0,1,.26.93c-.18.41-.39,1.27-.08,1.54a.75.75,0,0,1-.36,1.31,1.14,1.14,0,0,0-.67.32s0,.2.38.65a.68.68,0,0,1,.14.23,2.24,2.24,0,0,1-1.15,2.6.44.44,0,0,0-.19.47,3.45,3.45,0,0,0,2.22,2.24,28.39,28.39,0,0,0,3.68,1.3.75.75,0,0,1,.5.42.74.74,0,0,1,0,.65Zm4.63-30.61h0Z"></path><path class="cls-9" d="M116.26,57.79s1.9-.57,4.59,1.72,3.06,4.65,1.91,6.83a23.68,23.68,0,0,0-1.48,3.22l1.56.85s2-3.14,4-2.36,2,3,.94,5.73S126,78,128,79.36a4.82,4.82,0,0,0,.91.45,10.35,10.35,0,0,1,2-4.52c2.06-2.17,4.19-4.84,4.48-7.49s1.92-4.89-.69-8.56S121.32,54,119.54,52.75,116.26,57.79,116.26,57.79Z"></path><path class="cls-10" d="M135.36,67.8c-.3,2.65-2.44,5.32-4.49,7.48a10.44,10.44,0,0,0-2,4.53,3.89,3.89,0,0,1-.91-.46,2.86,2.86,0,0,1-1-1,6.93,6.93,0,0,1,1.36-2.42c2.06-2.17,4.19-4.84,4.49-7.49s1.91-4.89-.7-8.55c-2.35-3.31-11.32-4.94-14.36-6.13.51-.88,1.13-1.44,1.78-1,1.79,1.23,12.53,2.83,15.13,6.49S135.65,65.15,135.36,67.8Z"></path><path class="cls-3" d="M128.9,80.56a.84.84,0,0,1-.27,0,5.86,5.86,0,0,1-1.06-.54c-2.42-1.58-1.65-3.55-.68-6l.17-.42c.7-1.8,1.17-4.08-.52-4.76-1.13-.46-2.71,1.52-3.07,2.07a.75.75,0,0,1-1,.25l-1.56-.85a.75.75,0,0,1-.35-.89A23.2,23.2,0,0,1,122.1,66c1.08-2.06.51-4-1.73-5.91s-3.84-1.58-3.9-1.56a.79.79,0,0,1-.72-.19.73.73,0,0,1-.21-.71c.27-1.17,1.31-5,3-5.67a1.5,1.5,0,0,1,1.44.19,22.37,22.37,0,0,0,3.89,1.3c4,1.14,9.53,2.71,11.42,5.37,2.19,3.07,1.65,5.33,1.17,7.32a14.19,14.19,0,0,0-.34,1.75c-.34,3-2.84,6-4.68,7.92A9.29,9.29,0,0,0,129.63,80a.8.8,0,0,1-.38.5A.85.85,0,0,1,128.9,80.56Zm-2.74-13.39a2.65,2.65,0,0,1,.94.18c1.27.52,3.15,2.07,1.36,6.7l-.17.43c-1,2.58-1.24,3.37.11,4.25h0a9.29,9.29,0,0,1,1.93-4c1.7-1.79,4-4.47,4.28-7a15.72,15.72,0,0,1,.37-1.93c.46-1.93.86-3.59-.93-6.11-1.59-2.24-7-3.78-10.61-4.8a18.27,18.27,0,0,1-4.33-1.51c-.44,0-1.26,1.59-1.86,3.63a7.5,7.5,0,0,1,4.09,1.94c3.52,3,3.08,5.86,2.09,7.74-.62,1.19-1,2-1.21,2.54l.4.22C123.28,68.6,124.62,67.17,126.16,67.17Z"></path><path class="cls-11" d="M112.45,87.67c-3.66,1-7.87,3.5-11.85,10a28.17,28.17,0,0,0-3.38,8,85.47,85.47,0,0,0-2.29,20.09l-2,1.69L117.08,134c.15-.34.3-.68.42-1,1.48-2.47,7.74-15,10.37-26,1.82-6,2.93-11.75.26-15.93Z"></path><path class="cls-4" d="M127.87,107c-2.63,11-8.89,23.52-10.37,26-.12.35-.27.69-.43,1L93,127.45l1-.82,15.45,4.23c.14-.35.29-.69.41-1,1.49-2.47,7.75-15,10.37-26,1.59-5.25,6-9.24,1.1-14.25l6.89,1.51C130.8,95.27,129.69,101,127.87,107Z"></path><path class="cls-3" d="M117.08,134.79l-.2,0-24.12-6.59a.75.75,0,0,1-.53-.56.76.76,0,0,1,.24-.74l1.71-1.46a86.72,86.72,0,0,1,2.32-19.93A28.67,28.67,0,0,1,100,97.24c3.45-5.59,7.47-9,12.29-10.29a.73.73,0,0,1,.36,0l15.68,3.42a.7.7,0,0,1,.47.33c2.88,4.51,1.62,10.62-.17,16.55-2.61,10.85-8.87,23.49-10.41,26.09-.12.34-.27.68-.42,1A.75.75,0,0,1,117.08,134.79ZM94.52,127.1l22.13,6.05c0-.13.1-.26.14-.39a.61.61,0,0,1,.07-.14c1.44-2.4,7.68-15,10.28-25.78,1.66-5.5,2.86-11.09.52-15.09l-15.19-3.31c-4.36,1.27-8,4.4-11.23,9.58A27.54,27.54,0,0,0,98,105.85a85.33,85.33,0,0,0-2.27,19.89.75.75,0,0,1-.26.59Z"></path><path class="cls-12" d="M60.52,106.82s4.83,18.83,15.57,31.06c3.32,3.77,32.75,8.52,41-3.84.31-.08-23.29-10.79-30.26-33.36C86.76,100.49,60.52,106.82,60.52,106.82Z"></path><path class="cls-7" d="M117.07,134.05c-8.24,12.35-37.66,7.6-41,3.82-10.74-12.22-15.56-31.05-15.56-31.05L66,105.5c2.1,6.32,6.71,18.07,14.22,26.6,2.76,3.13,23.57,7,35.24,1C116.5,133.71,117.07,134,117.07,134.05Z"></path><path class="cls-3" d="M95.44,142.76c-9.16,0-18-2.18-19.91-4.39C64.79,126.15,59.85,107.2,59.8,107a.78.78,0,0,1,.08-.58.75.75,0,0,1,.47-.34s6.56-1.58,13.13-3.14c3.28-.78,6.57-1.56,9-2.12,4.78-1.1,4.79-1.11,5-.38,5.36,17.35,20.65,27.85,29.28,32.56.79.44,1.08.6,1,1.12a.64.64,0,0,1-.14.35c-4,6-12.35,7.75-18.64,8.17C97.85,142.73,96.64,142.76,95.44,142.76Zm-34-35.39c1,3.57,5.89,19.41,15.21,30,1.71,2,12.06,4.45,22.28,3.77,5.73-.38,13.21-1.89,17-6.87-8.75-4.8-24-15.34-29.69-32.76C83.42,102.11,70.57,105.17,61.45,107.37Z"></path><path class="cls-2" d="M111,99.9c.85-.44,1.71-.84,2.58-1.23l3.67-3.06c1.47-1.2,3-2.34,4.47-3.53A68.22,68.22,0,0,0,96.16,77.35C90.09,71.82,76.34,64.4,76.34,64.4l-2.51-1.78c-1.16-2.21-4.14-7.22-6.51-5.45a2.16,2.16,0,0,0-.19,2.88C68,61.54,69.49,61.29,70,63a11.45,11.45,0,0,1-6.58-.68,23.34,23.34,0,0,1-4.32-2.57,1,1,0,0,0-1.63.8v6.84c0,.4.43.56.61.93.47,1,3.47,3.3,7.13,3.23l9.26,1.34A54.08,54.08,0,0,0,88,83.67a95.2,95.2,0,0,0,20.54,17.67C109.4,100.84,110.26,100.29,111,99.9Z"></path><path class="cls-2" d="M67,59.7a2.08,2.08,0,0,1,.37-2.53,1.94,1.94,0,0,1,.8-.35c.89,1.34,2.3,1.16,2.78,2.8A13.15,13.15,0,0,1,67,59.7Z"></path><path class="cls-8" d="M121.74,92.08c-1.48,1.2-3,2.32-4.47,3.54l-3.67,3c-.87.4-1.73.79-2.58,1.23s-1.63.93-2.53,1.44A95.2,95.2,0,0,1,88,83.67,54.32,54.32,0,0,1,74.47,72.88l-9.26-1.33c-3.66.06-6.65-2.29-7.13-3.25-.18-.36-.61-.52-.61-.92V60.53a1,1,0,0,1,.91-1V64c0,.4.42.57.6.93.48,1,3.48,3.3,7.13,3.24l9.26,1.33A54.32,54.32,0,0,0,88.85,80.3,95.2,95.2,0,0,0,109.39,98c.91-.51,1.78-1,2.53-1.44s1.71-.83,2.58-1.23l3.67-3c.66-.54,1.33-1.07,2-1.59C120.7,91.12,121.23,91.59,121.74,92.08Z"></path><path class="cls-3" d="M108.49,102.09a.77.77,0,0,1-.4-.12A96.36,96.36,0,0,1,87.48,84.26a54.65,54.65,0,0,1-13.4-10.68L65.17,72.3c-3.84,0-7.13-2.39-7.76-3.66a1.16,1.16,0,0,0-.16-.17,1.51,1.51,0,0,1-.53-1.09V60.54a1.74,1.74,0,0,1,1-1.58,1.77,1.77,0,0,1,1.86.18,22.2,22.2,0,0,0,4.18,2.49,10.1,10.1,0,0,0,5,.76,5.2,5.2,0,0,0-.6-.4,4.39,4.39,0,0,1-1.68-1.56,2.92,2.92,0,0,1,.36-3.84A2.54,2.54,0,0,1,69,56.12c2.11.47,4.11,3.48,5.44,6l2.37,1.67c.48.25,13.63,7.37,19.76,12.89a69.69,69.69,0,0,1,25.72,14.86.73.73,0,0,1,.23.57.76.76,0,0,1-.28.56c-.65.53-1.32,1-2,1.56-.83.65-1.66,1.29-2.47,2L114.39,99l-.31.26-.17.11c-.77.34-1.67.76-2.55,1.21h0c-.43.22-.9.49-1.39.78l-1.11.64A.69.69,0,0,1,108.49,102.09ZM65.21,70.79h.11l9.25,1.34a.83.83,0,0,1,.47.25A53.12,53.12,0,0,0,88.3,83a.92.92,0,0,1,.22.17,94.38,94.38,0,0,0,20,17.29l.69-.4c.52-.3,1-.6,1.47-.83h0c.87-.45,1.76-.85,2.52-1.2l.23-.19c1.12-.94,2.24-1.88,3.36-2.8.83-.68,1.67-1.34,2.51-2l1.3-1A68.1,68.1,0,0,0,96,78.08a.75.75,0,0,1-.3-.17C89.72,72.5,76.12,65.14,76,65.06L73.4,63.24a.67.67,0,0,1-.23-.27c-1.63-3.1-3.32-5.12-4.53-5.39a1,1,0,0,0-.87.19c-.09.09-.69.71,0,1.9a3,3,0,0,0,1.16,1,3.43,3.43,0,0,1,1.78,2.06.79.79,0,0,1-.08.62.78.78,0,0,1-.52.34,12.23,12.23,0,0,1-7-.74,24.22,24.22,0,0,1-4.47-2.66.29.29,0,0,0-.28,0,.27.27,0,0,0-.14.24v6.77l.1.1a2,2,0,0,1,.43.56,8.55,8.55,0,0,0,6.45,2.82Z"></path><polyline class="cls-11" points="122.77 92.67 111.8 83.41 98.44 96.27 107.8 104.47"></polyline><path class="cls-3" d="M107.8,105.23a.78.78,0,0,1-.5-.19L98,96.83a.71.71,0,0,1-.25-.54.72.72,0,0,1,.22-.56l13.36-12.86a.75.75,0,0,1,1,0l11,9.27a.74.74,0,0,1,.09,1.05.75.75,0,0,1-1.06.09l-10.45-8.82L99.55,96.24l8.74,7.67a.75.75,0,0,1-.49,1.32Z"></path><path class="cls-3" d="M145.38,143h-.51a1,1,0,0,1,0-2h.51a1,1,0,0,1,0,2Z"></path><path class="cls-3" d="M142.17,143H136.8a1,1,0,0,1,0-2h5.37a1,1,0,0,1,0,2Z"></path><path class="cls-3" d="M133.48,143H39.36a1,1,0,0,1,0-2h94.12a1,1,0,1,1,0,2Z"></path></svg>