<svg id="Layer_1" viewBox="0 0 185 185" xmlns="http://www.w3.org/2000/svg"><defs><style>.cls-1{fill:#d9e2e9;}.cls-2{fill:#e8c79c;}.cls-3{fill:#00063c;}.cls-4{fill:#d0aa79;}.cls-5{fill:#2f3a5a;}.cls-6{fill:#8fb6f8;}.cls-7{fill:#6c95f8;}.cls-8{fill:#566ef5;}.cls-9{fill:#fc3133;}.cls-10{fill:#e51b3a;}</style></defs><title></title><circle class="cls-1" cx="92.5" cy="92.5" r="90"></circle><path class="cls-2" d="M91.65,46c-.61-5.66-4.2-16.62-4.2-16.62s3.41-9.24,1.8-10.8c-1-1-2.87-.91-4.13-.74A.89.89,0,0,0,84.41,19a16.57,16.57,0,0,1,.18,5.08c-.39-.48-1.34-1.44-2-2.13a1.13,1.13,0,0,0-1.71,1.48,21.61,21.61,0,0,1,2.47,5.31c-2.24,5.33.33,14.57,1.16,16.76-.2,21.56-.9,10.31,2.81,19.83l7.82,3.73C95,65.19,91.65,46,91.65,46Z"></path><path class="cls-3" d="M95.13,69.82a.76.76,0,0,1-.33-.08L87,66a.76.76,0,0,1-.38-.41,14.29,14.29,0,0,0-2.26-4.33c-.84-1-.84-1.14-.73-6.67,0-2.07.09-4.94.13-9-.88-2.42-3.34-11.38-1.2-16.92a20,20,0,0,0-2.28-4.84,1.88,1.88,0,0,1,2.84-2.46l.85.86a10.7,10.7,0,0,0-.25-3.05,1.66,1.66,0,0,1,.17-1.39A1.63,1.63,0,0,1,85,17.11c1.52-.21,3.56-.22,4.76.95.66.63.82,1.88.5,3.92a47.81,47.81,0,0,1-2,7.38c.5,1.57,3.59,11.28,4.17,16.54C92.58,47,95.7,65.19,95.87,69a.72.72,0,0,1-.33.66A.76.76,0,0,1,95.13,69.82Zm-7.24-5,6.38,3c-.6-5.61-3.33-21.52-3.36-21.7v0c-.59-5.46-4-16-4.17-16.46a.67.67,0,0,1,0-.24.86.86,0,0,1,0-.27c1.54-4.13,2.71-9.28,2-10s-1.84-.77-3.51-.53a.1.1,0,0,0-.08,0,.15.15,0,0,0,0,.14,17.51,17.51,0,0,1,.21,5.38.78.78,0,0,1-.53.64.76.76,0,0,1-.8-.25c-.29-.35-1-1.09-2-2.06a.38.38,0,0,0-.58.49,20.27,20.27,0,0,1,2.62,5.76A.72.72,0,0,1,84,29c-2.15,5.12.42,14.23,1.18,16.21a.86.86,0,0,1,0,.27c0,4.11-.1,7-.14,9.12-.1,5.09-.1,5.09.39,5.7A14.83,14.83,0,0,1,87.89,64.79Z"></path><path class="cls-2" d="M107.2,99.56l-5.82,11.28s15.76,10.11,16.69,10.4l18.79,8,2.7-5.28A27.66,27.66,0,0,0,123,113.72S119.17,110.31,107.2,99.56Z"></path><path class="cls-4" d="M139.56,123.92l-2.7,5.29-18.79-8c-.93-.29-16.69-10.4-16.69-10.4l1.63-3.18c1.26.8,15.72,10.07,16.61,10.34l18.79,8,1.09-2.13Z"></path><path class="cls-3" d="M136.86,130a.75.75,0,0,1-.29-.06l-18.79-8c-.88-.27-13.09-8.07-16.81-10.46a.76.76,0,0,1-.26-1l5.82-11.29a.76.76,0,0,1,.53-.39.72.72,0,0,1,.64.18c10.61,9.53,14.83,13.29,15.65,14a28.12,28.12,0,0,1,16.82,10.47.74.74,0,0,1,.05.77l-2.69,5.28A.74.74,0,0,1,136.86,130Zm-34.5-19.37c6,3.83,15.13,9.63,16,10l18.19,7.71,2.17-4.24a27.24,27.24,0,0,0-15.81-9.54.85.85,0,0,1-.37-.18s-3.67-3.28-15.08-13.52Z"></path><path class="cls-5" d="M136.55,142.74l-2.07-1.12c.1,0,1,.15,4.64-7.08l2.68-5.88a.48.48,0,0,0,0-.48L141,127h0l1.78-3.7.18.08a11.36,11.36,0,0,1,3.12,2.19,82.2,82.2,0,0,1-6.49,13.77s-1.82,3.57-3,3.38Z"></path><path class="cls-3" d="M136.64,143.5l-.2,0a.68.68,0,0,1-.24-.08l-2.08-1.13a.75.75,0,0,1-.31-1,.77.77,0,0,1,.58-.41c.26-.21,1.34-1.31,4.07-6.66l2.6-5.74-.68-1a.71.71,0,0,1,0-.73l1.78-3.71a.75.75,0,0,1,1-.35l.18.08a12.06,12.06,0,0,1,3.38,2.38c.31.35.45.51-1.49,4.88-1,2.22-2.62,5.71-4.91,9.75C139.67,140.87,138.16,143.5,136.64,143.5Zm-.79-2,.87.47a8.34,8.34,0,0,0,2.22-3,97.34,97.34,0,0,0,6.32-13.21,12,12,0,0,0-2.12-1.49L141.87,127l.53.81a1.26,1.26,0,0,1,.09,1.19l-2.68,5.9A38.52,38.52,0,0,1,135.85,141.51Zm-1.06-.58Zm0,0Zm6.35-12.34Z"></path><path class="cls-6" d="M134.47,141.61s-.51-.19-.52-1.07a3.05,3.05,0,0,1,.05-.7c0-.16.07-.34.11-.55s0-.17,0-.26V139l0-.18,0-.2a.51.51,0,0,0,0-.13l0-.17a2,2,0,0,1,0-.24l.06-.46,0-.2c0-.19.06-.37.08-.53s0-.07,0-.11,0-.07,0-.1,0-.07,0-.11,0,0,0-.06a.28.28,0,0,0,0-.09,1.26,1.26,0,0,0,0-.21v-.05s-.44-6.71-.28-7.25c.09-.29.68-.66,1.3-1l.2-.13c.43-.28,2.73-1.45,2.39-3.93a2.54,2.54,0,0,0-.42-1,.55.55,0,0,1,0-.7c.19-.23,1.31,0,2.52.36l.1,0,.35.11.14,0,.46.16.17.06.11,0,.59.21.61.25-1.63,3.38a.65.65,0,0,0,0,.62l.53.8a.63.63,0,0,1,.05.61l-2.65,5.82c-3.68,7.22-4.55,7.11-4.65,7.07Z"></path><path class="cls-3" d="M134.57,142.41a.94.94,0,0,1-.4-.11l-.07,0a1.85,1.85,0,0,1-.9-1.72,3.88,3.88,0,0,1,.06-.86c0-.16.07-.34.11-.53l0-.25,0-.12,0-.32h.76l-.74-.1.24-1.6v-.12s0-.1,0-.11a1.38,1.38,0,0,1,0-.2l0-.2a51,51,0,0,1-.23-7.47c.16-.54.78-.93,1.55-1.43l.52.56-.41-.63.29-.18a3.16,3.16,0,0,0,1.9-3.1,1.65,1.65,0,0,0-.29-.71,1.28,1.28,0,0,1,0-1.59c.37-.45,1-.57,3.31.11l.11,0,.5.16.48.16.19.07-.16.74.26-.71c.21.07.41.15.6.23a6.54,6.54,0,0,1,.64.26.72.72,0,0,1,.4.42.76.76,0,0,1,0,.59l-1.6,3.32.49.74a1.37,1.37,0,0,1,.1,1.33l-2.65,5.82C136.46,141.41,135.23,142.41,134.57,142.41Zm.24-1.46Zm-.66-1.92.74.12,0,.23c0,.26-.08.46-.12.63a1.81,1.81,0,0,0,0,.46v.08a35.79,35.79,0,0,0,3.75-6.34l2.61-5.74-.49-.73a1.4,1.4,0,0,1-.09-1.37l1.28-2.65-.43-.16-.12,0-.15,0-.45-.16-.48-.14.12-.75-.22.72a13.88,13.88,0,0,0-1.38-.35,2.71,2.71,0,0,1,.28.89c.26,1.84-.62,3.39-2.62,4.59l-.24.15-.12.08a9,9,0,0,0-.93.65c-.05.71.11,4,.31,6.95a.71.71,0,0,1,0,.14v.1l0,.17a.51.51,0,0,0,0,.13l-.76,0,.74.09v.12h-.76l.74.1-.21,1.44,0,.18,0,.14-.05.31Z"></path><path class="cls-3" d="M134.47,142.37a.8.8,0,0,1-.33-.08.75.75,0,0,1-.2-.15.74.74,0,0,1,0-1.06.75.75,0,0,1,.95-.09.75.75,0,0,1-.42,1.38Z"></path><path class="cls-2" d="M80.6,46.67l-1.39,4,.52,1.26a26.6,26.6,0,0,0-1.6,2.68c-.57,1.17.22,1.41,1.29,1.66,0,0-.08,1.3.7,1.57,0,0-1.47.86.09,1.65,0,0,.45.49-.15,1.36s.65,2,2.46,2.1a21.06,21.06,0,0,0,2.86-.08l-.62,5.93L97.4,67S94.8,59.36,94.6,58a7.42,7.42,0,0,1,.15-3.51c.81-2,1.54-4.28,1-6.11s0-3.72-2.65-5.49S83,42.85,81.47,42.5,80.6,46.67,80.6,46.67Z"></path><path class="cls-3" d="M84.76,69.51a.71.71,0,0,1-.51-.21.76.76,0,0,1-.23-.62l.52-5c-.5,0-1.19,0-2,0a3.66,3.66,0,0,1-3.15-1.61,1.61,1.61,0,0,1,.09-1.67,1,1,0,0,0,.18-.4,1.59,1.59,0,0,1-.88-1.3A1.49,1.49,0,0,1,79,57.8a2.62,2.62,0,0,1-.32-1,2,2,0,0,1-1.38-1,1.8,1.8,0,0,1,.14-1.62,24.23,24.23,0,0,1,1.43-2.43l-.37-.89a.75.75,0,0,1,0-.53l1.32-3.79c-.15-1.21-.33-3.68.62-4.54a1.3,1.3,0,0,1,1.2-.29,16.19,16.19,0,0,0,2.84-.14c3.15-.29,7.08-.65,9.08.67A5.71,5.71,0,0,1,96.31,47a11,11,0,0,0,.22,1.22c.57,2.16-.35,4.8-1.09,6.59a6.46,6.46,0,0,0-.09,3.11c.13.93,1.72,5.76,2.76,8.79a.7.7,0,0,1-.07.63.77.77,0,0,1-.53.36L84.87,69.5Zm.61-7.43a.74.74,0,0,1,.53.21.78.78,0,0,1,.22.62l-.51,5L96.4,66.34c-.71-2.09-2.37-7.07-2.54-8.21a7.64,7.64,0,0,1,.2-3.89c.65-1.6,1.47-3.91,1-5.63a10.46,10.46,0,0,1-.25-1.41,4.29,4.29,0,0,0-2.09-3.65c-1.56-1-5.51-.67-8.12-.42a14.66,14.66,0,0,1-3.21.12,8.26,8.26,0,0,0-.07,3.32.69.69,0,0,1,0,.35L80,50.61l.4,1a.73.73,0,0,1-.07.7s-1,1.49-1.55,2.59a.79.79,0,0,0-.11.35,8.63,8.63,0,0,0,.9.25.74.74,0,0,1,.58.77,1.23,1.23,0,0,0,.19.82.75.75,0,0,1,.5.63.73.73,0,0,1-.36.72,1.24,1.24,0,0,0-.21.18l.26.16a.65.65,0,0,1,.21.16,1.81,1.81,0,0,1-.08,2.29s0,.05,0,.14a2.26,2.26,0,0,0,1.85.79,17.85,17.85,0,0,0,2.74-.08Z"></path><path class="cls-5" d="M80.6,46.67s1.1-.86,3.48,0,3.21,2.29,3,4a17.24,17.24,0,0,0-.16,2.51l1.25.17s.55-2.6,2-2.58,2.09,1.48,2.09,3.55S92.2,57.6,93.88,58a3.51,3.51,0,0,0,.72.07,7.42,7.42,0,0,1,.15-3.51c.81-2,1.54-4.28,1-6.11s0-3.72-2.65-5.49S83,42.85,81.47,42.5,80.6,46.67,80.6,46.67Z"></path><path class="cls-3" d="M94.57,58.78a3.89,3.89,0,0,1-.85-.09c-2.18-.47-2.17-2.21-2.17-4v-.32c0-1.27-.23-2.79-1.35-2.8-.56,0-1.13,1.29-1.28,2a.76.76,0,0,1-.84.58l-1.25-.16a.76.76,0,0,1-.65-.7,18.77,18.77,0,0,1,.16-2.65c.18-1.52-.64-2.58-2.51-3.23s-2.75-.1-2.79-.07a.77.77,0,0,1-1.19-.5c-.15-1.12-.39-3.81.6-4.72a1.3,1.3,0,0,1,1.2-.29,16.19,16.19,0,0,0,2.84-.14c3.15-.29,7.08-.65,9.08.67A5.71,5.71,0,0,1,96.31,47a11,11,0,0,0,.22,1.22c.57,2.16-.35,4.8-1.09,6.59a6.46,6.46,0,0,0-.09,3.11.77.77,0,0,1-.74.86ZM90.19,50h0c.86,0,2.84.45,2.83,4.3v.33c0,1.77,0,2.27.7,2.49a6.43,6.43,0,0,1,.31-2.9c.65-1.6,1.47-3.91,1-5.63a10.46,10.46,0,0,1-.25-1.41,4.29,4.29,0,0,0-2.09-3.65c-1.56-1-5.51-.67-8.12-.42a14.66,14.66,0,0,1-3.21.12,6.27,6.27,0,0,0-.16,2.37,5.7,5.7,0,0,1,3.07.31c3.41,1.19,3.66,3.53,3.51,4.82-.07.69-.11,1.21-.13,1.6C88,51.4,88.79,50,90.19,50Z"></path><path class="cls-7" d="M85,65.73c-2.11,1.57-4.2,4.21-5.16,9.37a19.27,19.27,0,0,0-.17,6A86.78,86.78,0,0,1,80,96.38l3.44,4.5,15.43-.77c0-.26,1.91-2.94,1.9-3.2.34-2,.06-14.84-1-22.55-.33-4.34-1-8.3-3.8-10.33Z"></path><path class="cls-8" d="M100.74,96.91c0,.26-1.88,2.94-1.89,3.2l-15.44.77-.21-.28,9.94-.49c0-.26,1.9-2.94,1.9-3.2.33-2,.06-14.84-1-22.55-.28-3.85-.88-7.42-3-9.58L96,64c2.76,2,3.47,6,3.8,10.33C100.8,82.07,101.08,95,100.74,96.91Z"></path><path class="cls-3" d="M83.41,101.63a.76.76,0,0,1-.6-.29l-3.43-4.5a.74.74,0,0,1-.16-.51,85.32,85.32,0,0,0-.29-15.11A20.55,20.55,0,0,1,79.11,75c.84-4.52,2.63-7.73,5.45-9.83a.69.69,0,0,1,.33-.14l11-1.71a.74.74,0,0,1,.56.14c3.06,2.25,3.78,6.56,4.1,10.88,1,7.69,1.32,20.43,1,22.68,0,.29-.2.6-1.1,2-.29.45-.72,1.11-.82,1.32a.74.74,0,0,1-.69.55l-15.44.78Zm-2.67-5.47,3,4,14.6-.73.76-1.21c.31-.48.77-1.19.88-1.42.3-1.87.08-14.42-1-22.29-.29-3.88-.89-7.69-3.26-9.64L85.31,66.44c-2.42,1.87-4,4.75-4.72,8.8A18.44,18.44,0,0,0,80.42,81,87.08,87.08,0,0,1,80.74,96.16Z"></path><path class="cls-2" d="M89,46c-.61-5.66-4.2-16.62-4.2-16.62s3.41-9.24,1.8-10.8c-1-1-2.87-.91-4.13-.74A.89.89,0,0,0,81.8,19,16.57,16.57,0,0,1,82,24.09c-.39-.48-1.34-1.44-2-2.13a1.13,1.13,0,0,0-1.71,1.48,21.61,21.61,0,0,1,2.47,5.31c-2.24,5.33.33,14.57,1.16,16.76C82.77,62,81,55.82,84.69,65.34L96.1,66.71C95.92,62.83,89,46,89,46Z"></path><path class="cls-3" d="M96.1,67.46H96L84.6,66.08a.73.73,0,0,1-.61-.47l-1-2.55c-1.53-3.85-1.54-3.92-1.55-7.32,0-1.91,0-4.79-.29-10.07-.87-2.38-3.36-11.38-1.22-16.94a19.53,19.53,0,0,0-2.27-4.84,1.88,1.88,0,0,1,2.84-2.46l.85.86a10.7,10.7,0,0,0-.25-3.05,1.66,1.66,0,0,1,.17-1.39,1.63,1.63,0,0,1,1.14-.74c1.51-.21,3.56-.22,4.76.95,1.71,1.65-.43,8.3-1.53,11.34.55,1.69,3.55,11.19,4.15,16.42.62,1.52,6.89,17,7.07,20.85a.77.77,0,0,1-.24.59A.74.74,0,0,1,96.1,67.46ZM85.22,64.65l10,1.2c-.74-3.94-4.71-14.25-6.88-19.56a.46.46,0,0,1,0-.2c-.59-5.46-4-16-4.17-16.46a.67.67,0,0,1,0-.24.75.75,0,0,1,0-.26c1.75-4.77,2.66-9.34,2-10s-1.84-.77-3.51-.53a.09.09,0,0,0-.08,0,.13.13,0,0,0,0,.14,17.51,17.51,0,0,1,.21,5.38.75.75,0,0,1-1.33.39c-.29-.35-1-1.08-2-2.06a.38.38,0,0,0-.58.49,20.27,20.27,0,0,1,2.62,5.76.8.8,0,0,1-.06.3c-2.15,5.11.42,14.22,1.17,16.2a.59.59,0,0,1,0,.23c.29,5.38.3,8.32.3,10.26,0,3.15,0,3.15,1.45,6.76C84.62,63.11,84.9,63.81,85.22,64.65Z"></path><polygon class="cls-7" points="93.53 55.84 81.99 60.62 85.13 75.3 97.89 71.21 93.53 55.84"></polygon><path class="cls-8" d="M93.91,72.64l4-1.43L93.53,55.84l-3.92,1.62,4.23,14.88Z"></path><path class="cls-3" d="M85.13,76.05a.74.74,0,0,1-.73-.59L81.26,60.77a.75.75,0,0,1,.44-.85l11.54-4.77a.75.75,0,0,1,.62,0,.74.74,0,0,1,.39.47L98.61,71a.76.76,0,0,1-.52.93.74.74,0,0,1-.92-.52L93,56.86,82.85,61.07l3,14.08a.75.75,0,0,1-.57.89Z"></path><path class="cls-2" d="M85.88,101.22l-7.52-3.06s-23-3.54-22.69,7.43l5.87,30.32,5.72.44s3.42-14.93-1-26c0,0,13.65,3.11,19.88-3.06C87.8,105.64,84.81,104.29,85.88,101.22Z"></path><path class="cls-4" d="M86.16,107.27c-6.23,6.17-19.87,3.07-19.87,3.07,4.38,11.08,1,26,1,26l-5.72-.43L61,133.15l1.62.12s3.41-14.93-1-26c0,0,13.66,3.11,19.89-3.06,1.43-1.42-.68-2.63-.51-5l4.9,2C84.81,104.29,87.8,105.64,86.16,107.27Z"></path><path class="cls-3" d="M67.26,137.1h-.05l-5.73-.44a.73.73,0,0,1-.68-.6l-5.87-30.33s0-.08,0-.12a6.67,6.67,0,0,1,2.3-5.4c5.79-5.1,20.62-2.89,21.25-2.79l.17,0,7.53,3.06a.75.75,0,0,1,.42.94,3.75,3.75,0,0,0,.34,3c.42,1,.94,2.13-.24,3.3-5.35,5.3-15.58,4.15-19.24,3.52,3.72,11,.68,24.6.55,25.2A.76.76,0,0,1,67.26,137.1Zm-5.1-1.89,4.5.34c.57-2.93,2.68-15.47-1.07-24.94a.73.73,0,0,1,.12-.76.78.78,0,0,1,.74-.25c.13,0,13.32,3,19.18-2.86.42-.41.37-.64-.07-1.63a5.4,5.4,0,0,1-.57-3.44l-6.83-2.78c-1.21-.17-14.9-2-19.94,2.44a5.13,5.13,0,0,0-1.8,4.18Z"></path><path class="cls-5" d="M49.64,141.7v-2.29c0,.11.32.89,8.16.67l6.25-.44a.48.48,0,0,0,.39-.26l.63-1.18h0l4-.2v.19a11.07,11.07,0,0,1-.41,3.67,78.74,78.74,0,0,1-14.72.86s-3.88.11-4.29-1Z"></path><path class="cls-3" d="M55.72,143.49l-1.8,0c-1.3,0-4.45,0-5-1.51a.8.8,0,0,1,0-.26v-2.29a.76.76,0,0,1,.73-.75.82.82,0,0,1,.63.31c.31.13,1.75.53,7.53.36l6.07-.43.56-1.05a.73.73,0,0,1,.63-.4l4-.2a.75.75,0,0,1,.79.7v.18a11.63,11.63,0,0,1-.46,4c-.17.45-.23.63-4.86,1C62.47,143.31,59.41,143.49,55.72,143.49ZM53.91,142a92.41,92.41,0,0,0,14.14-.74,11.3,11.3,0,0,0,.28-2.44l-2.8.14-.43.81a1.21,1.21,0,0,1-1,.64l-6.25.45a36.47,36.47,0,0,1-7.47-.27v.91A8.11,8.11,0,0,0,53.91,142Zm-3.58-.55Zm.06-2.06h0Zm0,0Z"></path><path class="cls-6" d="M49.64,139.4s-.07-.52.67-.94a2.94,2.94,0,0,1,.61-.28l.53-.16.24-.09h0l.17-.06.19-.06.11-.05.16-.05.22-.08.43-.16.18-.06.49-.19.1,0,.09,0,.09,0,.06,0,.08,0,.2-.07,0,0s5.5-3.48,6-3.59a3.46,3.46,0,0,1,1.49.61l.2.11c.44.24,2.5,1.65,4.45.21a2.49,2.49,0,0,0,.68-.83.52.52,0,0,1,.57-.35c.29,0,.61,1.11.87,2.3a.3.3,0,0,0,0,.1l.06.35a.58.58,0,0,1,0,.14c0,.15.06.31.08.46a1.13,1.13,0,0,1,0,.18.43.43,0,0,1,0,.11l.09.6c0,.23,0,.44.07.64l-3.62.18a.62.62,0,0,0-.52.32l-.43.81a.63.63,0,0,1-.5.33l-6.17.44c-7.84.22-8.16-.57-8.16-.67Z"></path><path class="cls-3" d="M55.24,140.87c-6.25,0-6.31-.83-6.35-1.41v-.05a1.78,1.78,0,0,1,1.06-1.6,3.4,3.4,0,0,1,.76-.35,4.72,4.72,0,0,0,.5-.16l.23-.08.13,0,.41.65-.24-.71,1.67-.61.1,0,.1,0,.14-.06.27-.1a49.56,49.56,0,0,1,6.21-3.65,3.24,3.24,0,0,1,1.94.66l.17.09.1.05.14.08a3,3,0,0,0,3.49.19,1.56,1.56,0,0,0,.46-.57,1.27,1.27,0,0,1,1.38-.75c.56.11,1,.61,1.46,2.89l.12.59c0,.17.06.33.08.49l0,.19-.72.22.74-.12c0,.21.06.42.09.62s.06.47.08.67a.77.77,0,0,1-.19.56.75.75,0,0,1-.52.26l-3.55.17-.4.75a1.34,1.34,0,0,1-1.1.71l-6.18.45C56.88,140.85,56,140.87,55.24,140.87Zm-4.52-1.77a36.09,36.09,0,0,0,7.06.23l6.07-.44.39-.74a1.36,1.36,0,0,1,1.13-.72l2.83-.14-.06-.41,0-.12,0-.16c0-.16-.06-.3-.08-.45l-.1-.47,0-.1a12.16,12.16,0,0,0-.33-1.29,2.9,2.9,0,0,1-.6.61c-1.46,1.08-3.19,1-5.15-.09l-.31-.18a10.59,10.59,0,0,0-1-.51c-.53.24-3.3,1.93-5.74,3.48l-.15.07-.22.08-.12.05-.38-.66.26.7-2.07.76-.37-.67.24.71-.15.05-.1,0-.54.17a2.68,2.68,0,0,0-.42.19Zm9.71-5Z"></path><path class="cls-3" d="M49.64,140.16a.75.75,0,0,1-.74-.63.66.66,0,0,1,0-.28.75.75,0,0,1,.88-.59.76.76,0,0,1,.61.75.75.75,0,0,1-.63.74Z"></path><path class="cls-9" d="M80.11,93.91l-11,2.42,2.09,15.59,18.63-1.27c-.11.19,16.83,4.43,16.83,4.43s7.23-10.52,7.23-10.52L101.1,93.64C99.55,93.85,80.52,95.48,80.11,93.91Z"></path><path class="cls-10" d="M89.8,104.68c0,.2,15.1,5.27,19.42,6.72-1.37,2-2.53,3.68-2.59,3.68s-16.83-4.21-16.83-4.43l-18.63,1.27-.75-5.53Z"></path><path class="cls-10" d="M113.86,104.56l-2.51,3.72c.38-1.47.84-3.2,1.25-4.79Z"></path><path class="cls-3" d="M106.59,115.85a.55.55,0,0,1-.22-.06c-11.76-3-15.42-3.92-16.62-4.38l-18.53,1.26a.79.79,0,0,1-.8-.65L68.34,96.43a.75.75,0,0,1,.58-.83l11-2.42a.74.74,0,0,1,.79.33c1.84.89,17.66-.26,20.26-.61a.74.74,0,0,1,.59.18L114.34,104a.75.75,0,0,1,.14,1C108.15,114.39,107.17,115.85,106.59,115.85ZM90.2,110c1,.38,10.18,2.72,16.15,4.21,1-1.31,4.23-6.14,6.51-9.53l-12-10.27c-1.45.15-6.17.55-10.65.76-7.3.35-9.6,0-10.38-.45l-9.91,2.18,1.9,14.21,17.93-1.23A.71.71,0,0,1,90.2,110Z"></path><path class="cls-3" d="M151.36,144.25H115a1,1,0,0,1,0-2h36.38a1,1,0,0,1,0,2Z"></path><path class="cls-3" d="M111.86,144.25h-1.33a1,1,0,0,1,0-2h1.33a1,1,0,1,1,0,2Z"></path><path class="cls-3" d="M107.32,144.25H41.64a1,1,0,1,1,0-2h65.68a1,1,0,0,1,0,2Z"></path></svg>