<svg id="Layer_1" viewBox="0 0 185 185" xmlns="http://www.w3.org/2000/svg"><defs><style>.cls-1{fill:#d9e2e9;}.cls-2{fill:#e8c79c;}.cls-3{fill:#00063c;}.cls-4{fill:#2f3a5a;}.cls-5{fill:#8fb6f8;}.cls-6{fill:#6c95f8;}.cls-7{fill:#e51b3a;}.cls-8{fill:#d0aa79;}.cls-9{fill:#39476b;}.cls-10{fill:#566ef5;}.cls-11{fill:#fc3133;}.cls-12{fill:#8ae0a1;}</style></defs><title></title><circle class="cls-1" cx="92.5" cy="92.5" r="90"></circle><path class="cls-2" d="M121.58,115.23l-4.15-20.49S84,98,82.57,98.41l-34.5,6.27.6,9.08s21.61,8.62,37.21,2.23C85.88,116,97.79,109.72,121.58,115.23Z"></path><path class="cls-3" d="M72.36,119.11a72.19,72.19,0,0,1-24-4.66.73.73,0,0,1-.47-.64l-.6-9.08a.75.75,0,0,1,.61-.79l34.51-6.27c1.37-.38,31.49-3.34,34.92-3.68a.75.75,0,0,1,.81.6l4.15,20.49a.77.77,0,0,1-.21.69.74.74,0,0,1-.69.19c-23.25-5.38-35.07.64-35.19.7A36.62,36.62,0,0,1,72.36,119.11Zm-23-5.88c3.13,1.15,22.29,7.77,36.22,2.07.42-.23,12-6.12,35-1l-3.79-18.7c-13.36,1.32-33,3.31-34.07,3.58l-33.9,6.17Z"></path><path class="cls-4" d="M38,86.79l3.55-.14c-.16,0-1.36.55-.55,12.7L42.1,109a.72.72,0,0,0,.41.59l1.87.91h0l.55,6.15-.29,0a17.17,17.17,0,0,1-5.73-.42c-.19-.06-1.92-9.73-2.21-22.78,0,0-.39-6,1.33-6.71Z"></path><path class="cls-3" d="M43.1,117.53a16.68,16.68,0,0,1-4.42-.54c-.42-.13-.74-.24-1.58-7.14-.44-3.6-1-9.37-1.15-16.33-.1-1.51-.26-6.59,1.8-7.43A.75.75,0,0,1,38,86l3.54-.14a.74.74,0,0,1,.78.7.75.75,0,0,1-.36.69c-.18.36-.84,2.37-.2,12l1.07,9.64,1.87.9a.75.75,0,0,1,.42.61l.55,6.16a.76.76,0,0,1-.67.81l-.29,0A14.53,14.53,0,0,1,43.1,117.53Zm-3.59-1.87a17.26,17.26,0,0,0,4.61.34l-.45-5-1.49-.73a1.48,1.48,0,0,1-.83-1.18l-1.07-9.67c-.47-7-.29-10.36.08-12l-2.12.08c-.6.46-1,3.18-.79,5.92A140.17,140.17,0,0,0,39.51,115.66Z"></path><path class="cls-5" d="M41.6,86.64s.8-.14,1.5,1a4.85,4.85,0,0,1,.47.92c.08.24.17.51.29.81,0,.12.09.24.14.37a.14.14,0,0,1,0,.06,2.77,2.77,0,0,1,.1.26l.12.28a1.34,1.34,0,0,0,.07.18,2.6,2.6,0,0,0,.1.25l.13.33.27.66.11.27c.11.27.22.52.31.75a1,1,0,0,1,.07.15l.06.14.06.15,0,.09,0,.12.13.3,0,.06s5.74,8.33,5.94,9.15a5.34,5.34,0,0,1-.86,2.36l-.16.32c-.34.69-2.42,4-.06,6.91a3.55,3.55,0,0,0,1.33,1,.84.84,0,0,1,.58.87c-.07.45-1.69,1-3.53,1.48l-.15,0-.53.12-.22.06-.71.15-.27,0-.18,0-.92.17-1,.15-.5-5.61a1,1,0,0,0-.53-.78l-1.29-.62a1,1,0,0,1-.53-.75L41,99.34c-.81-12.15.39-12.68.56-12.7Z"></path><path class="cls-3" d="M44.94,117.41a.73.73,0,0,1-.47-.17.75.75,0,0,1-.28-.52l-.5-5.61a.19.19,0,0,0-.11-.16l-1.29-.62a1.73,1.73,0,0,1-.95-1.35l-1.05-9.56C39.4,86.13,40.82,86,41.5,85.9h.08a2.38,2.38,0,0,1,2.15,1.35,5.17,5.17,0,0,1,.55,1.08c.07.23.17.5.28.78l.14.36,0,.14,1.3,3.17-.63.45.68-.31,0,.11-.66.35.71-.24.13.3c1.7,2.47,5.79,8.47,6,9.34.16.66-.23,1.48-.87,2.77l-.32.63c-.82,1.53-1.71,3.81,0,5.89a2.89,2.89,0,0,0,1.06.79,1.55,1.55,0,0,1,1,1.66c-.08.56-.47,1.18-4.08,2.1l-.17,0-.53.12-.18,0-.77.16-.29.06-.16,0-1,.17-1,.15Zm-3-29.95c-.23.69-.69,3.2-.12,11.83l1,9.52A.2.2,0,0,0,43,109l1.29.63a1.71,1.71,0,0,1,.95,1.38l.42,4.82.18,0,.91-.16.18,0,.25,0,.7-.16.2,0,.54-.13.14,0a14.87,14.87,0,0,0,2.83-.93h0A4.41,4.41,0,0,1,49.93,113c-1.65-2.06-1.69-4.59-.12-7.53l.31-.6a7.45,7.45,0,0,0,.74-1.79c-.22-.6-3.53-5.56-5.81-8.86L45,94.09l-.15-.37-.06-.13.63-.43-.68.3s0-.1-.05-.11l-1.31-3.22.65-.39-.7.27-.15-.38c-.11-.31-.21-.59-.29-.83a3.52,3.52,0,0,0-.36-.7A1.76,1.76,0,0,0,41.9,87.46Z"></path><path class="cls-3" d="M41.6,87.39h-.05a.75.75,0,0,1,0-1.5.88.88,0,0,1,.32,0,.75.75,0,0,1-.24,1.46Z"></path><path class="cls-2" d="M79.38,79c-7.9,1.18-23.06,6.85-23.06,6.85S43.17,81.62,41.08,84C39.77,85.42,40,88,40.27,89.79a1.25,1.25,0,0,0,1.67.93c2.38-.87,7.11-.55,7.11-.55-.66.59-1.95,2-2.86,3a1.59,1.59,0,0,0,2.16,2.32,30.44,30.44,0,0,1,7.31-3.78c7.59,2.84,20.41-1.29,23.43-2.58,30.24-.94,16.68-6.28,29.81-12l4.55-15.77C108,61.77,79.38,79,79.38,79Z"></path><path class="cls-3" d="M47.35,96.56a2.31,2.31,0,0,1-1.65-.7,2.34,2.34,0,0,1-.07-3.24c.51-.55,1.1-1.18,1.65-1.75a17.16,17.16,0,0,0-5.08.55,2,2,0,0,1-1.71-.14,2,2,0,0,1-1-1.35c-.37-2-.5-4.81,1-6.47,2.23-2.49,13,.74,15.78,1.61,2-.75,15.45-5.63,22.82-6.77C81.46,76.89,108,61,113.38,60.55a.72.72,0,0,1,.64.27.78.78,0,0,1,.15.69l-4.55,15.77a.7.7,0,0,1-.42.47c-4.55,2-5.68,3.83-6.78,5.61-2.1,3.4-3.62,5.86-23.16,6.47C76,91.18,63.5,95.21,55.66,92.47A29.09,29.09,0,0,0,48.83,96,2.38,2.38,0,0,1,47.35,96.56ZM47,89.37c1.14,0,2,0,2.07.06a.76.76,0,0,1,.66.5.77.77,0,0,1-.22.81c-.48.43-1.48,1.46-2.8,2.9a.84.84,0,0,0,1.14,1.23A30.53,30.53,0,0,1,55.41,91a.74.74,0,0,1,.51,0C63.31,93.73,76,89.58,78.8,88.4a.66.66,0,0,1,.27-.06c18.88-.59,20.29-2.87,22.08-5.77,1.08-1.75,2.41-3.92,7.13-6l4.1-14.23c-6.09,1.82-25.24,12.93-32.62,17.38a.79.79,0,0,1-.27.1c-7.62,1.14-22.28,6.57-22.9,6.8a.78.78,0,0,1-.5,0c-6.1-2-13.36-3.34-14.45-2.12s-.88,3.8-.63,5.2a.45.45,0,0,0,.23.32.51.51,0,0,0,.45,0A17.78,17.78,0,0,1,47,89.37ZM79.38,79h0Z"></path><polygon class="cls-6" points="97.33 65.95 98.78 83.3 120.8 80.06 125.58 57.62 97.33 65.95"></polygon><path class="cls-3" d="M98.79,84a.72.72,0,0,1-.47-.16.73.73,0,0,1-.28-.52L96.59,66a.75.75,0,0,1,.53-.78l28.24-8.33a.76.76,0,0,1,1,.88l-4.77,22.44a.74.74,0,0,1-.63.58L98.89,84ZM98.13,66.5l1.34,15.94,20.71-3,4.4-20.7Z"></path><path class="cls-7" d="M132.8,109.69l8.34-34.09c-6.14,6-19.07,16.46-35.78,17.46-.2,0,.88,21.11.88,21.11s18.32,5.76,32.8-1.8a4.35,4.35,0,0,0,1.07-.89Z"></path><path class="cls-3" d="M121.38,117.05A55.56,55.56,0,0,1,106,114.88a.73.73,0,0,1-.52-.67s-.27-5.28-.52-10.56c-.52-11.28-.52-11.28.34-11.34,16.25-1,29.09-11.22,35.31-17.24a.74.74,0,0,1,.89-.12.76.76,0,0,1,.36.83l-8.16,33.36,6.58,1.61a.76.76,0,0,1,.54.52.73.73,0,0,1-.17.72,4.89,4.89,0,0,1-1.28,1.05A39,39,0,0,1,121.38,117.05ZM107,113.59c3,.83,18.8,4.7,31.47-1.75l-5.81-1.42a.75.75,0,0,1-.55-.91l7.74-31.63C133,84,121,92.64,106.08,93.77,106.12,96.35,106.6,106.45,107,113.59Z"></path><path class="cls-2" d="M117,117.93l-1.17-19.05s-28.14,5-29.56,5.36L46.5,108.9l.58,8.9s23,5.7,38.63-.06C85.71,117.74,93.29,113.27,117,117.93Z"></path><path class="cls-8" d="M117,121.05c-23.74-4.67-31.3-3.31-31.3-3.31-15.66,5.75-38.64.06-38.64.06l-.58-8.9.37,0,.21,3.25s23,5.7,38.64-.06c0,0,7.49-4.49,31,.12Z"></path><path class="cls-3" d="M117,121.8l-.14,0c-22.18-4.36-30.24-3.41-31-3.31-15.68,5.72-38.05.29-39,0a.76.76,0,0,1-.57-.67l-.58-8.9a.74.74,0,0,1,.62-.79L84.7,101.7c1.38-.34,28-3.23,31.07-3.56a.78.78,0,0,1,.57.17.75.75,0,0,1,.26.54L117.77,121a.77.77,0,0,1-.75.79Zm-27.75-5c4.24,0,12.53.54,27,3.33l-1.07-20.41C103.27,101,86,102.93,85,103.17l-37.71,6.36.5,7.66c3.53.8,23.72,5,37.67-.15a.53.53,0,0,1,.12,0A22.85,22.85,0,0,1,89.27,116.8Z"></path><path class="cls-4" d="M36.47,91.18,40,91c-.16,0-1.36.55-.55,12.7l1.07,9.67A.73.73,0,0,0,41,114l1.87.9h0l.55,6.16-.29,0a17.17,17.17,0,0,1-5.73-.42c-.19-.06-1.92-9.73-2.21-22.78,0,0-.39-6,1.33-6.71Z"></path><path class="cls-3" d="M41.54,121.92a17.13,17.13,0,0,1-4.42-.54c-.43-.14-.74-.24-1.58-7.14-.44-3.61-1-9.37-1.15-16.33-.1-1.51-.26-6.59,1.8-7.43a.75.75,0,0,1,.26,0L40,90.29a.73.73,0,0,1,.78.69.76.76,0,0,1-.36.7c-.18.36-.84,2.36-.2,12l1.07,9.64,1.87.9a.72.72,0,0,1,.42.61l.55,6.15a.75.75,0,0,1-.67.81l-.29,0A14.53,14.53,0,0,1,41.54,121.92ZM38,120.05a18.1,18.1,0,0,0,4.61.34l-.44-5-1.5-.72a1.48,1.48,0,0,1-.83-1.18l-1.07-9.67c-.47-7-.29-10.36.07-12l-2.11.08c-.6.46-1,3.18-.79,5.92A140.17,140.17,0,0,0,38,120.05Z"></path><path class="cls-5" d="M40,91s.8-.14,1.5,1A5.31,5.31,0,0,1,42,93c.08.23.17.51.29.81l.14.36a.25.25,0,0,1,0,.07,2,2,0,0,1,.1.26l.12.28a1.34,1.34,0,0,0,.07.18,2.6,2.6,0,0,0,.1.25l.13.33.27.66c0,.09.07.18.11.26.11.28.22.53.31.76a1,1,0,0,1,.07.15l.06.14.06.14a.39.39,0,0,0,0,.09s0,.09.05.13l.13.3,0,.06s5.74,8.33,5.94,9.15a5.38,5.38,0,0,1-.86,2.36c0,.1-.11.21-.16.32-.34.68-2.42,4-.06,6.91a3.55,3.55,0,0,0,1.33,1,.83.83,0,0,1,.58.86c-.07.46-1.69,1-3.53,1.49l-.15,0-.53.12-.22,0-.71.16-.27,0-.18,0-.92.17-1,.15-.5-5.61a1,1,0,0,0-.53-.78L41.06,114a1,1,0,0,1-.53-.76l-1.06-9.55c-.81-12.15.39-12.68.56-12.7Z"></path><path class="cls-3" d="M43.38,121.8a.73.73,0,0,1-.47-.17.77.77,0,0,1-.28-.52l-.5-5.61a.19.19,0,0,0-.11-.16l-1.29-.63a1.66,1.66,0,0,1-.94-1.34l-1.06-9.56c-.89-13.3.53-13.45,1.22-13.53h0a2.37,2.37,0,0,1,2.17,1.35,4.92,4.92,0,0,1,.55,1.08c.07.23.17.49.28.78l1.37,3.38.06.16.34.8c1.7,2.46,5.79,8.46,6,9.33.16.66-.23,1.48-.87,2.77l-.32.63c-.82,1.53-1.71,3.81,0,5.89a2.89,2.89,0,0,0,1.06.79,1.54,1.54,0,0,1,1,1.65c-.08.57-.47,1.19-4.08,2.1l-.17.05-.5.12-.25.06-.73.15-.3.06-.3-.7.15.73-1,.18-1,.15Zm-3-30c-.23.69-.69,3.2-.12,11.84l1.06,9.52a.2.2,0,0,0,.1.16l1.3.63a1.7,1.7,0,0,1,1,1.38l.42,4.82.18,0,.9-.17.2,0,.23,0,.71-.16.21,0,.53-.13.13,0a15.29,15.29,0,0,0,2.84-.94h0a4.46,4.46,0,0,1-1.6-1.21c-1.65-2.06-1.69-4.59-.12-7.54l.31-.59a7.45,7.45,0,0,0,.74-1.79c-.22-.6-3.54-5.56-5.81-8.87a.51.51,0,0,1-.09-.16l-.14-.33S43.2,98,43.2,98L41.59,94c-.11-.31-.21-.59-.29-.83a3.73,3.73,0,0,0-.37-.72A1.8,1.8,0,0,0,40.34,91.84Z"></path><path class="cls-3" d="M40,91.78h0a.75.75,0,0,1-.08-1.5h.2A.75.75,0,0,1,40,91.78Z"></path><path class="cls-2" d="M94.18,41.87,94.65,48l1.43,1.38a39.76,39.76,0,0,0-.57,4.54c-.09,1.9,1.11,1.75,2.7,1.46,0,0,.65,1.79,1.85,1.7,0,0-1.45,2,1.09,2.16,0,0,.89.39.61,1.9s2.07,2.38,4.53,1.38a29.61,29.61,0,0,0,3.78-1.78L112.73,69l15.89-9.85s-8-8.65-9-10.32a10.68,10.68,0,0,1-1.86-4.79c-.07-3.1-.46-6.64-2.18-8.81s-2.17-5-6.77-5.81-13.7,5.89-15.92,6.29S94.18,41.87,94.18,41.87Z"></path><path class="cls-3" d="M112.73,69.79a.85.85,0,0,1-.26-.05.75.75,0,0,1-.45-.47l-2.39-7.45c-.65.34-1.68.83-3.06,1.39a5,5,0,0,1-4.81-.26,2,2,0,0,1-.74-2c.12-.65,0-.93-.13-1a2.08,2.08,0,0,1-1.84-1.06,1.89,1.89,0,0,1,0-1.34,3.47,3.47,0,0,1-1.23-1.35,2.88,2.88,0,0,1-2.37-.37,2.31,2.31,0,0,1-.64-2,36.5,36.5,0,0,1,.51-4.24l-1.14-1.11a.8.8,0,0,1-.23-.48l-.46-5.95c-.73-1.22-2.57-4.57-1.85-6.19a1.56,1.56,0,0,1,1.18-.9,22.57,22.57,0,0,0,3.83-1.88c3.8-2.11,9-5,12.34-4.4,3.85.66,5.11,2.72,6.21,4.53a16,16,0,0,0,1,1.55c2,2.48,2.28,6.47,2.34,9.25a9.74,9.74,0,0,0,1.74,4.41c.83,1.32,6.72,7.82,8.92,10.22a.74.74,0,0,1-.16,1.14l-15.89,9.85A.8.8,0,0,1,112.73,69.79ZM110.07,60a.58.58,0,0,1,.26.05.73.73,0,0,1,.45.47l2.37,7.4L127.46,59c-1.9-2.08-7.57-8.31-8.47-9.77a11,11,0,0,1-2-5.16c-.06-2.57-.33-6.23-2-8.36a16.16,16.16,0,0,1-1.13-1.7c-1.07-1.76-2-3.29-5.18-3.84-2.82-.49-8,2.36-11.37,4.24A20.12,20.12,0,0,1,93,36.49c-.39.38.37,2.68,1.78,5a.76.76,0,0,1,.11.33l.44,5.84,1.23,1.19a.76.76,0,0,1,.22.67,40.24,40.24,0,0,0-.57,4.43c0,.6.11.74.14.77.22.19,1.17,0,1.68-.08a.75.75,0,0,1,.84.48c.15.39.67,1.24,1.1,1.21a.75.75,0,0,1,.66,1.19c-.18.25-.32.64-.26.75s.2.18.79.22a.57.57,0,0,1,.25.06,2.31,2.31,0,0,1,1,2.73.49.49,0,0,0,.21.52,3.57,3.57,0,0,0,3.3,0,29,29,0,0,0,3.67-1.74A.78.78,0,0,1,110.07,60Z"></path><path class="cls-9" d="M94.18,41.87s1-1.81,4.64-2.09,5.66,1.19,6.41,3.63a24.86,24.86,0,0,0,1.27,3.47l1.77-.51s-.79-3.82,1.21-4.66,3.67.76,4.89,3.53,1.78,4.46,4.25,4a5.19,5.19,0,0,0,1-.33,10.68,10.68,0,0,1-1.86-4.79c-.07-3.1-.46-6.64-2.18-8.81s-2.17-5-6.77-5.81-13.7,5.89-15.92,6.29S94.18,41.87,94.18,41.87Z"></path><path class="cls-4" d="M119.63,48.87a5.68,5.68,0,0,1-1,.33,2.51,2.51,0,0,1-2.3-.45,5.2,5.2,0,0,1-.25-1.45c-.07-3.1-.45-6.64-2.17-8.81s-2.17-5-6.79-5.81c-4-.69-11.22,4.15-14.59,5.78-.46-1.31-.6-2.54.38-2.71,2.22-.4,11.31-7.08,15.91-6.28s5.07,3.63,6.78,5.8,2.11,5.71,2.18,8.81A10.68,10.68,0,0,0,119.63,48.87Z"></path><path class="cls-3" d="M117.79,50c-2.16,0-3-1.82-3.92-4.06l-.19-.44c-.81-1.84-2.14-3.89-3.91-3.14-1.16.49-.94,3-.77,3.81a.76.76,0,0,1-.52.88l-1.78.51a.73.73,0,0,1-.87-.39,22.92,22.92,0,0,1-1.32-3.58c-.7-2.29-2.59-3.34-5.63-3.11s-4,1.65-4,1.72a.76.76,0,0,1-.64.37h0a.74.74,0,0,1-.64-.35c-.65-1.06-2.71-4.66-2-6.35a1.56,1.56,0,0,1,1.18-.9,22.57,22.57,0,0,0,3.83-1.88c3.8-2.11,9-5,12.34-4.4,3.85.66,5.11,2.72,6.21,4.53a16,16,0,0,0,1,1.55c2,2.48,2.28,6.47,2.34,9.25a9.74,9.74,0,0,0,1.74,4.41.7.7,0,0,1,.08.61.74.74,0,0,1-.41.47,4.84,4.84,0,0,1-1.17.38A5,5,0,0,1,117.79,50Zm-7.25-9.31c1.33,0,3,.84,4.51,4.21l.19.44c1.16,2.67,1.57,3.42,3.23,3.08h0A9.67,9.67,0,0,1,117,44.1c-.06-2.57-.33-6.23-2-8.36a16.16,16.16,0,0,1-1.13-1.7c-1.07-1.76-2-3.29-5.18-3.84-2.82-.49-8,2.36-11.37,4.24A20.12,20.12,0,0,1,93,36.49c-.34.33.2,2.13,1.28,4.12A7.6,7.6,0,0,1,98.76,39c4.77-.36,6.54,2.06,7.19,4.16a29.32,29.32,0,0,0,1,2.78l.51-.14c-.16-1.31-.22-4,1.75-4.81A3.46,3.46,0,0,1,110.54,40.73Z"></path><path class="cls-6" d="M112.37,63.25c-1.89,3.31-3.13,8-1.4,15.46a28.27,28.27,0,0,0,3.28,8.11,85.45,85.45,0,0,0,12.55,15.92l-.2,2.6L148.42,93c-.13-.35-.27-.7-.43-1-.69-2.8-5.11-16.17-11-25.83C134.06,60.56,130.8,55.7,126,54.61Z"></path><path class="cls-10" d="M126.79,102.92,140.72,95c-.13-.34-.27-.69-.43-1-.69-2.8-5.11-16.17-11-25.83-2.36-4.44-4.9-8.43-8.3-10.41L126,54.61c4.86,1.09,8.11,6,11.06,11.52,5.87,9.66,10.29,23,11,25.83.16.34.3.69.43,1l-21.83,12.34Z"></path><path class="cls-3" d="M126.6,106.09a.73.73,0,0,1-.41-.12.76.76,0,0,1-.34-.69L126,103A87.41,87.41,0,0,1,113.6,87.2a29,29,0,0,1-3.36-8.32c-1.49-6.41-1-11.65,1.48-16a.69.69,0,0,1,.25-.26L125.55,54a.72.72,0,0,1,.57-.1c5.24,1.18,8.65,6.42,11.56,11.9,5.89,9.69,9.87,22.76,10.58,25.64a7.43,7.43,0,0,1,.29,1.15c.07.3.12.58.17.72a.76.76,0,0,1-.34.92L127,106A.7.7,0,0,1,126.6,106.09ZM112.93,63.78c-2.21,4-2.61,8.81-1.23,14.76a27.36,27.36,0,0,0,3.19,7.89,85.72,85.72,0,0,0,12.43,15.77.71.71,0,0,1,.23.6l-.09,1.21,19.69-10.84c0-.09,0-.19-.07-.3a5.62,5.62,0,0,0-.21-.89.66.66,0,0,1-.05-.15c-.66-2.69-4.59-15.67-10.45-25.31-2.7-5.09-5.8-9.92-10.29-11.11Z"></path><path class="cls-11" d="M104.57,116.59s25.61,7.48,35.56,4.68c9.27-2.6,14.07-11.68,6.79-31.39,0-.33-17.46,6.16-41.11,7.57C105.61,97.46,104.57,116.59,104.57,116.59Z"></path><path class="cls-7" d="M140.13,121.27c-9.95,2.8-35.56-1-35.56-1s.09-5.33.22-7.61c8.23,1.82,19.13,3.6,24.85,2,7.77-2.18,12.4-8.92,9.4-22.65,5-1.31,7.88-2.31,7.88-2.17C154.21,109.58,149.4,118.67,140.13,121.27Z"></path><path class="cls-3" d="M129.34,123.06a202.3,202.3,0,0,1-24.88-2,.76.76,0,0,1-.64-.78s.26-5.71.55-11.43c.6-12.1.6-12.1,1.39-12.15a174.89,174.89,0,0,0,39-7C147,89,147,89,147.36,89.27a.75.75,0,0,1,.26.35h0c4.09,11.07,4.69,19.59,1.76,25.31a13.81,13.81,0,0,1-9,7.07A44.07,44.07,0,0,1,129.34,123.06Zm-24-3.39c4.1.56,25.78,3.35,34.58.88a12.35,12.35,0,0,0,8.12-6.3c2.67-5.24,2.13-13.14-1.62-23.51l-1.22.36a176.28,176.28,0,0,1-38.74,7.06C106.25,100.75,105.71,111.81,105.35,119.67Z"></path><path class="cls-2" d="M77.74,83.34c-7.9,1.18-23.06,6.84-23.06,6.84s-13.15-4.25-15.24-1.91c-1.31,1.46-1.13,4.07-.81,5.83A1.24,1.24,0,0,0,40.3,95c2.38-.86,7.11-.54,7.11-.54-.66.58-1.95,2-2.87,3a1.59,1.59,0,0,0,.05,2.21,1.57,1.57,0,0,0,2.12.11A30.65,30.65,0,0,1,54,96c7.59,2.83,20.41-1.3,23.43-2.59,30.24-.94,16.67-6.28,29.81-12l4.54-15.77C106.38,66.09,77.74,83.34,77.74,83.34Z"></path><path class="cls-8" d="M111.81,65.61l-4.55,15.77c-13.14,5.74.43,11.09-29.81,12C74.43,94.69,61.61,98.82,54,96a30.47,30.47,0,0,0-7.3,3.77,1.59,1.59,0,0,1-2.17-2.32l.93-1a1.57,1.57,0,0,0,.88-.35,30.65,30.65,0,0,1,7.31-3.77c7.59,2.83,20.41-1.3,23.43-2.59,30.24-.93,16.67-6.28,29.81-12l3.41-11.83A12.08,12.08,0,0,1,111.81,65.61Z"></path><path class="cls-3" d="M45.71,100.87a2.3,2.3,0,0,1-1.65-.69A2.35,2.35,0,0,1,44,96.93c.51-.54,1.1-1.18,1.65-1.75a16.83,16.83,0,0,0-5.08.56,2,2,0,0,1-1.71-.15,2,2,0,0,1-1-1.35c-.38-2-.51-4.81,1-6.47,2.16-2.43,12.32.52,15.78,1.62,2-.76,15.35-5.62,22.82-6.77,2.34-1.41,28.86-17.28,34.26-17.75a.7.7,0,0,1,.64.27.73.73,0,0,1,.14.68L108,81.59a.74.74,0,0,1-.42.48c-4.55,2-5.68,3.82-6.78,5.6-2.1,3.4-3.62,5.86-23.16,6.48-3.24,1.34-15.76,5.37-23.6,2.64a28.24,28.24,0,0,0-6.83,3.55A2.32,2.32,0,0,1,45.71,100.87Zm-.32-7.19c1.14,0,2,0,2.07.06a.75.75,0,0,1,.44,1.31c-.48.43-1.48,1.46-2.8,2.9a.84.84,0,0,0,0,1.17.83.83,0,0,0,1.12.06A28.48,28.48,0,0,1,54,95.24a.58.58,0,0,1,.26.05c7.38,2.75,20.12-1.4,22.88-2.58a1.31,1.31,0,0,1,.27-.06c18.87-.58,20.29-2.87,22.07-5.77,1.08-1.75,2.42-3.91,7.14-6l4.1-14.24C104.65,68.42,85.5,79.54,78.12,84a.79.79,0,0,1-.27.1c-7.74,1.16-22.76,6.75-22.91,6.8a.78.78,0,0,1-.5,0c-6.24-2-13.35-3.34-14.44-2.12s-.88,3.8-.63,5.2a.43.43,0,0,0,.23.32.52.52,0,0,0,.44,0A17.53,17.53,0,0,1,45.39,93.68ZM77.74,83.34h0Z"></path><polyline class="cls-6" points="123.93 61.94 95.69 70.26 97.14 87.61 119.16 84.38"></polyline><polygon class="cls-10" points="96.73 82.64 97.14 87.61 119.16 84.38 120.16 79.68 96.73 82.64"></polygon><path class="cls-3" d="M97.14,88.36a.78.78,0,0,1-.46-.16.74.74,0,0,1-.28-.53L95,70.33a.76.76,0,0,1,.53-.79l28.24-8.32a.74.74,0,0,1,.93.5.76.76,0,0,1-.5.94L96.49,70.81l1.33,15.94,21.23-3.12a.76.76,0,0,1,.85.64.75.75,0,0,1-.63.85l-22,3.23Z"></path><line class="cls-12" x1="26.04" x2="25.46" y1="122.59" y2="122.59"></line><path class="cls-3" d="M25.46,123.59a1,1,0,0,1,0-2H26a1,1,0,0,1,1,1,1,1,0,0,1-1,1Z"></path><line class="cls-12" x1="32.31" x2="29.19" y1="122.56" y2="122.57"></line><path class="cls-3" d="M29.19,123.57a1,1,0,0,1-1-1,1,1,0,0,1,1-1l3.11,0h0a1,1,0,0,1,0,2l-3.12,0Z"></path><line class="cls-12" x1="150.46" x2="35.1" y1="121.87" y2="122.51"></line><path class="cls-3" d="M35.1,123.51a1,1,0,0,1-1-1,1,1,0,0,1,1-1l115.35-.64h0a1,1,0,0,1,1,1,1,1,0,0,1-1,1l-115.35.64Z"></path></svg>