<svg id="Layer_1" viewBox="0 0 185 185" xmlns="http://www.w3.org/2000/svg"><defs><style>.cls-1{fill:#d9e2e9;}.cls-2{fill:#e8c79c;}.cls-3{fill:#00063c;}.cls-4{fill:#566ef5;}.cls-5{fill:#2f3a5a;}.cls-6{fill:#8fb6f8;}.cls-7{fill:#d0aa79;}.cls-8{fill:#39476b;}.cls-9{fill:#6c95f8;}.cls-10{fill:#e51b3a;}.cls-11{fill:#fc3133;}</style></defs><title></title><circle class="cls-1" cx="92.5" cy="92.5" r="90"></circle><path class="cls-2" d="M50.91,100.42a113.34,113.34,0,0,0-1.75,14.72s-8.26,5.55-7.09,7.78c.73,1.4,2.17,2,4.16,2.25a48.64,48.64,0,0,0,7.11-.55,1.27,1.27,0,0,0,.68-1.56,18.31,18.31,0,0,1-.67-5.8,21.54,21.54,0,0,0,5.06-13.8c7.78-23,4.42-12.63,3.79-24.13L51.61,71.49C50.45,75.7,50.91,100.42,50.91,100.42Z"></path><path class="cls-3" d="M46.4,125.92h-.25c-2.39-.25-3.94-1.11-4.74-2.64a2.42,2.42,0,0,1,.33-2.44c1.13-1.87,5-5.07,6.69-6.11a113.77,113.77,0,0,1,1.73-14.37c0-1.85-.43-24.88.73-29.06a.74.74,0,0,1,.48-.51.77.77,0,0,1,.69.1l10.59,7.85a.77.77,0,0,1,.3.56,21.7,21.7,0,0,0,.91,5.81c.74,2.41.74,2.41-4,16.48l-.68,2a22.39,22.39,0,0,1-5.07,14,16.85,16.85,0,0,0,.64,5.27,2,2,0,0,1-1.08,2.49C52.83,125.67,47.65,125.92,46.4,125.92ZM52.12,72.8c-.85,6.19-.46,27.38-.46,27.61a1,1,0,0,1,0,.17,115.21,115.21,0,0,0-1.74,14.59.76.76,0,0,1-.33.59c-4,2.7-7.3,5.95-6.85,6.82.56,1.06,1.7,1.64,3.58,1.84a53.75,53.75,0,0,0,6.74-.49.53.53,0,0,0,.26-.63,18.7,18.7,0,0,1-.71-6.08.75.75,0,0,1,.18-.45,20.74,20.74,0,0,0,4.88-13.27.66.66,0,0,1,0-.28l.71-2.12C63,87.49,63,87.49,62.43,85.54a22.3,22.3,0,0,1-1-5.81Z"></path><polyline class="cls-4" points="52.25 61.33 50.59 84.91 64.04 88.69 67.79 71.22"></polyline><path class="cls-3" d="M64,89.44l-.2,0L50.39,85.63a.73.73,0,0,1-.55-.77L51.5,61.28a.75.75,0,1,1,1.5.1l-1.62,23,12.1,3.39,3.58-16.69a.75.75,0,0,1,1.47.32L64.78,88.85a.75.75,0,0,1-.35.48A.68.68,0,0,1,64,89.44Z"></path><path class="cls-2" d="M100.16,71.26,97.35,87.81s20.84,8.42,22,8.55L150.69,106l2.18-7s-13.93-13.84-27.46-13.57C125.41,85.46,115,79.27,100.16,71.26Z"></path><path class="cls-3" d="M150.69,106.75a.83.83,0,0,1-.22,0l-31.3-9.64c-1.86-.42-17.31-6.64-22.1-8.57a.75.75,0,0,1-.46-.82l2.81-16.56a.79.79,0,0,1,.42-.55.74.74,0,0,1,.68,0c13.6,7.35,23.63,13.25,25.09,14.11h.2c13.56,0,27,13.22,27.59,13.79a.75.75,0,0,1,.18.75l-2.17,7A.75.75,0,0,1,150.69,106.75ZM98.19,87.34c7.93,3.2,20.26,8.1,21.27,8.28l.13,0,30.61,9.43L152,99.25c-2.16-2-14.69-13.31-26.59-13a.72.72,0,0,1-.4-.1c-.1-.06-10.14-6-24.29-13.69Z"></path><path class="cls-5" d="M153,122.31l-2.7-.92c.13,0,1.18,0,4.09-9.36l2-7.55a.6.6,0,0,0-.14-.56l-1.14-1.22h0l1.37-4.77.22.06a13.68,13.68,0,0,1,4.17,2c.13.11-1.37,7.84-4.93,17.71,0,0-1.45,4.61-2.94,4.64Z"></path><path class="cls-3" d="M153,123.06a.93.93,0,0,1-.24,0l-2.7-.93a.74.74,0,0,1-.47-.92.73.73,0,0,1,.54-.51c.25-.27,1.32-1.7,3.55-8.85l2-7.44-1.08-1.16a.73.73,0,0,1-.17-.72l1.37-4.77a.75.75,0,0,1,.91-.52l.23.06a14.58,14.58,0,0,1,4.45,2.12c.36.3.55.46-.83,6-.72,2.83-2,7.31-3.87,12.58-.48,1.51-1.8,5.1-3.64,5.14Zm-1.31-2,1.37.47c.48-.22,1.5-2,2.17-4.1a114.36,114.36,0,0,0,4.86-17.12,14.61,14.61,0,0,0-3.1-1.47L156,102.5l.86.91a1.32,1.32,0,0,1,.31,1.26l-2,7.55C153.56,117.33,152.48,119.85,151.72,121.07Zm-1.19-.41Z"></path><path class="cls-6" d="M150.31,121.39s-.63-.13-.83-1.18a3.28,3.28,0,0,1-.08-.83c0-.2,0-.43,0-.69v-1.21a2.62,2.62,0,0,1,0-.28c0-.2,0-.39,0-.58a1.85,1.85,0,0,0,0-.23c0-.23,0-.45,0-.65a.53.53,0,0,0,0-.13v-.25a.25.25,0,0,1,0-.08v-.11c0-.12,0-.21,0-.26v0s-1.89-7.9-1.8-8.58c.05-.36.68-.92,1.33-1.51l.21-.2c.45-.41,3-2.28,2-5.15a5.73,5.73,0,0,0-.65-1.78.78.78,0,0,1-.19-.82c.26-.9,6,1.06,6.22,1.12l-1.25,4.34a.77.77,0,0,0,.17.74l.79.84a.77.77,0,0,1,.18.71l-2,7.47c-2.9,9.33-4,9.38-4.08,9.35Z"></path><path class="cls-3" d="M150.44,122.17a1.34,1.34,0,0,1-.3,0l-.08,0a2,2,0,0,1-1.31-1.75,3.63,3.63,0,0,1-.1-1c0-.19,0-.41,0-.65v-.84l.75-.15-.75,0,0-2v-.24l.75-.16-.75,0s0-.09,0-.1l.75-.1h-.75V115c-.86-3.6-1.88-8.11-1.79-8.79s.59-1.09,1.5-1.91l.62.45-.51-.56.31-.27c1-.89,2.31-2.29,1.69-4.25,0-.11-.07-.25-.12-.41a5,5,0,0,0-.37-1.08,1.49,1.49,0,0,1-.36-1.53,1,1,0,0,1,.5-.61c.56-.3,1.72-.37,6.4,1.13l.23.07a.79.79,0,0,1,.46.36.74.74,0,0,1,.07.58L156,102.49l.79.85a1.53,1.53,0,0,1,.35,1.43l-2,7.46C152.36,121.15,151.15,122.17,150.44,122.17Zm-.28-3.8v.33c0,.26,0,.51,0,.71a2.31,2.31,0,0,0,.06.6,1.82,1.82,0,0,0,.12.42c.44-.63,1.49-2.6,3.37-8.62l2-7.43-.79-.85a1.51,1.51,0,0,1-.34-1.45l1.05-3.65a23.29,23.29,0,0,0-4.37-1.08,6.92,6.92,0,0,1,.53,1.49c0,.13.07.26.1.35.66,2.08-.06,4-2.14,5.83l-.27.25-.12.11a8.82,8.82,0,0,0-1,1c.05.75.93,4.73,1.78,8.28a.78.78,0,0,1,0,.16v.42l-.74.15.75,0v.21l-.74.15.75,0,0,1.75v.79l-.75.12Z"></path><path class="cls-3" d="M150.33,122.14a.69.69,0,0,1-.25,0,1,1,0,0,1-.18-.09.75.75,0,1,1,.43.13Z"></path><path class="cls-2" d="M103.88,73.84,98.49,88.18S118.81,98.1,120,98.31l30.93,10.76,2.48-6.71s-15.2-12.84-28.55-13.76C124.82,88.6,119.75,85,103.88,73.84Z"></path><path class="cls-7" d="M153.38,102.36l-2.5,6.72L120,98.31c-1.16-.22-21.48-10.13-21.48-10.13L100,84.13c3.94,1.91,19.58,9.5,20.59,9.69l30.92,10.77,1.07-2.87C153.1,102.12,153.38,102.36,153.38,102.36Z"></path><path class="cls-3" d="M150.89,109.82a.69.69,0,0,1-.25,0L119.72,99c-1.84-.56-18.23-8.54-21.56-10.17a.73.73,0,0,1-.37-.93l5.39-14.35a.77.77,0,0,1,.48-.45.75.75,0,0,1,.65.1c14.23,10,19.77,14,20.77,14.65,13.39,1,28.15,13.39,28.78,13.92a.74.74,0,0,1,.22.83l-2.49,6.71A.74.74,0,0,1,150.89,109.82Zm-51.46-22c8,3.9,19.69,9.51,20.68,9.76l30.33,10.55,2-5.52c-2.48-2-15.95-12.44-27.71-13.25a.73.73,0,0,1-.38-.14s-4.91-3.43-20.15-14.2Z"></path><path class="cls-5" d="M152.42,125.35l-2.65-1.06c.13,0,1.18,0,4.58-9.13l2.38-7.44a.55.55,0,0,0-.11-.56l-1.07-1.28h0l1.62-4.69.22.07a13.69,13.69,0,0,1,4.06,2.19c.12.11-1.78,7.76-5.85,17.42,0,0-1.69,4.53-3.18,4.48Z"></path><path class="cls-3" d="M152.44,126.1h-.05a.54.54,0,0,1-.25-.06L149.49,125a.75.75,0,0,1-.42-1,.74.74,0,0,1,.56-.48c.27-.25,1.41-1.62,4-8.65l2.35-7.33-1-1.21a.74.74,0,0,1-.13-.73l1.62-4.69a.76.76,0,0,1,.94-.47l.22.07a14.24,14.24,0,0,1,4.33,2.35c.35.31.54.49-1.14,5.91-.86,2.79-2.35,7.2-4.52,12.36C155.74,122.63,154.25,126.1,152.44,126.1ZM151.17,124l1.35.54c.49-.19,1.6-1.9,2.38-4a113.9,113.9,0,0,0,5.75-16.84,13.92,13.92,0,0,0-3-1.63l-1.24,3.58.81,1a1.35,1.35,0,0,1,.25,1.28l-2.39,7.44C153.2,120.41,152,122.86,151.17,124Z"></path><path class="cls-6" d="M149.75,124.29s-.62-.16-.76-1.22a3.53,3.53,0,0,1-.05-.84c0-.19,0-.43.06-.68,0-.1,0-.21,0-.32v0a1.77,1.77,0,0,1,0-.23,1.93,1.93,0,0,1,0-.24v-.16a1.48,1.48,0,0,0,0-.21,2.81,2.81,0,0,0,0-.29c0-.19,0-.38,0-.57s0-.15,0-.23c0-.23,0-.45,0-.65a.66.66,0,0,0,0-.14v-.32s0-.08,0-.11v-.32s-1.47-8-1.34-8.65c.06-.36.72-.89,1.4-1.45l.22-.18c.47-.39,3.08-2.12,2.31-5a2.92,2.92,0,0,0-.64-1.17.67.67,0,0,1-.15-.83c.2-.31,1.57-.19,3.07.07l.13,0,.43.09.18,0,.57.12.22,0,.14,0,.73.18.77.21-1.48,4.28a.76.76,0,0,0,.13.74l.75.88a.79.79,0,0,1,.14.73l-2.36,7.34c-3.4,9.17-4.45,9.17-4.57,9.13Z"></path><path class="cls-3" d="M149.88,125.07a1.15,1.15,0,0,1-.34-.06l-.07,0a2.06,2.06,0,0,1-1.23-1.81,4.05,4.05,0,0,1,0-1c0-.19,0-.41.05-.66v-.42l0-.41.75-.12-.75,0,0-.44.75-.09-.74,0,0-1.4v-.25l.75-.12h-.75v-.4c-.67-3.66-1.46-8.22-1.33-8.89s.68-1.08,1.6-1.83l.44-.36c1.07-.83,2.43-2.16,1.91-4.15a2.13,2.13,0,0,0-.49-.87,1.39,1.39,0,0,1-.21-1.72c.29-.45.8-.8,3.83-.27l.72.14.63.13.23.05,0,.76.16-.73.76.18c.28.08.56.15.8.23a.78.78,0,0,1,.45.37.81.81,0,0,1,0,.59l-1.48,4.27.74.9a1.48,1.48,0,0,1,.28,1.43l-2.36,7.35C151.87,124,150.59,125.07,149.88,125.07Zm-1.36-15.85c0,.75.68,4.77,1.34,8.36a.76.76,0,0,1,0,.15V118l-.76.1h.75l-.75.11h.75v.2l-.76.13h.75l0,1.41v.73l0,.42-.76.06.75,0,0,.34c0,.26,0,.5-.05.7a2.43,2.43,0,0,0,0,.61,2.17,2.17,0,0,0,.1.42c.48-.61,1.63-2.52,3.81-8.43l2.35-7.31-.74-.9a1.53,1.53,0,0,1-.27-1.47l1.22-3.52-.7-.17-.15,0-.19,0-.57-.12-.59-.12-.13,0a14.56,14.56,0,0,0-2-.24,3.53,3.53,0,0,1,.62,1.24c.55,2.11-.27,4-2.44,5.71l-.35.28A8.3,8.3,0,0,0,148.52,109.22Z"></path><path class="cls-3" d="M149.77,125a.65.65,0,0,1-.27-.05.8.8,0,0,1-.16-.08.75.75,0,0,1-.21-1,.76.76,0,1,1,.64,1.17Z"></path><path class="cls-2" d="M28,64l3.35,3.21,1.51,0a30.29,30.29,0,0,0,2,2.84c.92,1.11,1.51.43,2.26-.54,0,0,1.27.68,1.9,0,0,0,.2,1.86,1.7.66,0,0,.7-.23,1.31.77s2.36.29,3.24-1.51a22.25,22.25,0,0,0,1.22-2.91l5.7,3.33,4-13.56s-8.84-.85-10.27-1.26a8.21,8.21,0,0,1-3.46-1.76c-1.6-1.71-3.6-3.5-5.67-3.85S33,47.72,30,49.59s-4.73,10.23-5.77,11.57S28,64,28,64Z"></path><path class="cls-3" d="M42.83,72.16a1.68,1.68,0,0,1-1.48-.81c-.16-.27-.3-.38-.4-.41a1.72,1.72,0,0,1-1.67.3,1.52,1.52,0,0,1-.74-.69,2.75,2.75,0,0,1-1.21-.14,2.15,2.15,0,0,1-1.58,1,2,2,0,0,1-1.5-.84A30,30,0,0,1,32.44,68l-1.1,0a.73.73,0,0,1-.49-.21l-3.23-3.08c-1.26-.39-3.82-1.34-4.24-2.65a1.36,1.36,0,0,1,.23-1.27,17.12,17.12,0,0,0,1.18-3c1.08-3.12,2.57-7.4,4.79-8.79a6.24,6.24,0,0,1,5.93-.61,12.07,12.07,0,0,0,1.34.35c2.41.41,4.63,2.53,6.09,4.08a7.21,7.21,0,0,0,3.12,1.55c1.12.32,7.69,1,10.13,1.24a.73.73,0,0,1,.55.32.75.75,0,0,1,.1.63l-4,13.56a.74.74,0,0,1-.45.48.71.71,0,0,1-.65,0l-4.92-2.87c-.2.52-.51,1.24-.94,2.14a4,4,0,0,1-3,2.38Zm-1.95-2.74a2.09,2.09,0,0,1,1.76,1.15c0,.05,0,.1.21.09a2.55,2.55,0,0,0,1.72-1.54,22.7,22.7,0,0,0,1.18-2.81.75.75,0,0,1,1.09-.42l4.87,2.84L55.15,57c-2.37-.24-8.28-.85-9.51-1.2a8.67,8.67,0,0,1-3.8-2c-1.31-1.4-3.28-3.3-5.24-3.63a11.25,11.25,0,0,1-1.52-.39,4.81,4.81,0,0,0-4.7.44c-1.78,1.11-3.22,5.27-4.18,8a15.56,15.56,0,0,1-1.36,3.32,8.72,8.72,0,0,0,3.39,1.66.92.92,0,0,1,.3.18l3.15,3,1.22,0a.76.76,0,0,1,.61.36,28.71,28.71,0,0,0,1.9,2.76c.22.26.33.3.34.3a4.15,4.15,0,0,0,.74-.83.75.75,0,0,1,.95-.2c.35.18.88.29,1,.16a.74.74,0,0,1,.78-.19.74.74,0,0,1,.51.63.9.9,0,0,0,.13.4s.14-.08.35-.24a.7.7,0,0,1,.24-.13A1.25,1.25,0,0,1,40.88,69.42Z"></path><path class="cls-5" d="M28,64s-.36-1.51,1.56-3.52,3.78-2.18,5.43-1.19a18.46,18.46,0,0,0,2.46,1.31l.74-1.18s-2.37-1.74-1.67-3.23,2.45-1.42,4.54-.48,3.25,1.61,4.38.08a4,4,0,0,0,.4-.69,8.21,8.21,0,0,1-3.46-1.76c-1.6-1.71-3.6-3.5-5.67-3.85S33,47.72,30,49.59s-4.73,10.23-5.77,11.57S28,64,28,64Z"></path><path class="cls-8" d="M45.85,55.05a3.65,3.65,0,0,1-.4.69,2,2,0,0,1-1.35.9h0a3.75,3.75,0,0,1-.6-.49c-1.6-1.72-3.6-3.52-5.66-3.86s-3.76-1.73-6.74.15c-2.59,1.61-4.24,8-5.31,10.64-1.1-.53-2.1-1.23-1.57-1.92,1-1.34,2.78-9.69,5.77-11.57s4.68-.5,6.75-.15,4.06,2.14,5.66,3.86A8.31,8.31,0,0,0,45.85,55.05Z"></path><path class="cls-3" d="M28,64.7a.64.64,0,0,1-.2,0c-1.19-.35-4-1.33-4.42-2.7a1.36,1.36,0,0,1,.23-1.27,17.12,17.12,0,0,0,1.18-3c1.08-3.12,2.57-7.4,4.79-8.79a6.24,6.24,0,0,1,5.93-.61,12.07,12.07,0,0,0,1.34.35c2.41.41,4.63,2.53,6.09,4.08a7.21,7.21,0,0,0,3.12,1.55.72.72,0,0,1,.47.4.79.79,0,0,1,0,.62,4.88,4.88,0,0,1-.49.84c-1.43,1.93-3.07,1.18-5,.31l-.33-.15c-1.31-.6-3-1.06-3.54.11-.32.69.85,1.87,1.44,2.31a.75.75,0,0,1,.19,1L38.1,61a.75.75,0,0,1-.91.3,19.73,19.73,0,0,1-2.57-1.36c-1.49-.9-3-.55-4.51,1.06s-1.38,2.8-1.37,2.84a.77.77,0,0,1-.23.71A.76.76,0,0,1,28,64.7Zm-3.16-3.13a6.66,6.66,0,0,0,2.46,1.35,6.22,6.22,0,0,1,1.72-3c2-2.11,4.28-2.58,6.37-1.32.8.48,1.4.8,1.79,1l0-.06c-.79-.73-2.07-2.21-1.37-3.71.4-.83,1.72-2.57,5.53-.84l.33.15c1.89.87,2.41,1,3,.34a7.4,7.4,0,0,1-2.87-1.66c-1.31-1.4-3.28-3.3-5.24-3.63a11.25,11.25,0,0,1-1.52-.39,4.81,4.81,0,0,0-4.7.44c-1.78,1.11-3.22,5.27-4.18,8A15.56,15.56,0,0,1,24.84,61.57Z"></path><path class="cls-9" d="M50,68.16c.64,3,2.44,6.48,7.45,10a23,23,0,0,0,6.31,3.09,68.67,68.67,0,0,0,16,2.77l3.68-.82L89.6,66.56c-.27-.14-14.68-7.28-23.36-9.9-4.76-1.74-9.31-2.9-12.79-.95Z"></path><path class="cls-4" d="M89.6,66.56,83.46,83.18,79.77,84a68.67,68.67,0,0,1-16-2.77,22.8,22.8,0,0,1-6.3-3.09c-5-3.5-6.81-7-7.46-10l1.79-6.42c.66,3,2.47,6.44,7.44,9.91a22.66,22.66,0,0,0,6.3,3.09,68.43,68.43,0,0,0,16,2.78l3.67-.83L89.06,66.3Z"></path><path class="cls-3" d="M79.77,84.76h0A69.62,69.62,0,0,1,63.51,82,23.24,23.24,0,0,1,57,78.76c-4.36-3.05-6.9-6.47-7.76-10.44a.73.73,0,0,1,0-.36l3.47-12.45a.77.77,0,0,1,.36-.45c3.82-2.14,8.71-.83,13.42.9,8.77,2.65,23.31,9.87,23.44,9.93a.76.76,0,0,1,.36.93L84.16,83.45a.8.8,0,0,1-.54.47l-3.68.83Zm-29-16.58c.81,3.51,3.14,6.57,7.11,9.35a22,22,0,0,0,6.1,3A68.67,68.67,0,0,0,79.7,83.26l3.19-.72,5.77-15.6c-2.82-1.38-15-7.26-22.64-9.56-4.3-1.58-8.67-2.79-11.94-1.16Z"></path><path class="cls-10" d="M113.18,76.88S96.36,67.23,88.15,66a134.91,134.91,0,0,1-8.38,18c-.1.24,7.81,1.79,25.61,8.52C105.53,92.58,113.18,76.88,113.18,76.88Z"></path><path class="cls-11" d="M113.18,76.88S96.36,67.23,88.15,66a134.91,134.91,0,0,1-8.38,18c-.1.24,7.81,1.79,25.61,8.52C105.53,92.58,113.18,76.88,113.18,76.88Z"></path><path class="cls-10" d="M108.17,87.06c-1.48,3-2.72,5.46-2.79,5.46C87.69,85.85,79.77,84.27,79.77,84a135.6,135.6,0,0,0,8.38-18l.65.11c-1.36,3.11-3.36,7.38-6.13,12.46C82.67,78.85,90.55,80.4,108.17,87.06Z"></path><path class="cls-3" d="M105.41,93.31a1,1,0,0,1-.3-.08c-12.71-4.81-20.38-7-23.65-7.89-2.1-.59-2.19-.61-2.37-1a.77.77,0,0,1,0-.63,136,136,0,0,0,8.35-17.94.76.76,0,0,1,.82-.5c8.26,1.23,24.6,10.56,25.29,11a.75.75,0,0,1,.3,1s-1.91,3.93-3.84,7.85C106.48,92.2,105.94,93.31,105.41,93.31Zm-24.57-9.7,1,.29c3.24.91,10.76,3,23.18,7.7,1-1.95,4.59-9.17,7.14-14.41-3-1.68-16.29-9-23.55-10.33A144,144,0,0,1,80.84,83.61Z"></path><path class="cls-2" d="M53.33,101.19a113.08,113.08,0,0,0-1.75,14.71s-8.26,5.55-7.09,7.79c.73,1.39,2.17,2,4.16,2.24a48.64,48.64,0,0,0,7.11-.55,1.27,1.27,0,0,0,.68-1.56,18.29,18.29,0,0,1-.67-5.8,21.54,21.54,0,0,0,5.06-13.8c7.78-23,4.42-12.63,3.79-24.13L54,72.25C52.87,76.46,53.33,101.19,53.33,101.19Z"></path><path class="cls-7" d="M55.77,118a17.9,17.9,0,0,0,.67,5.79,1.27,1.27,0,0,1-.68,1.57,48.64,48.64,0,0,1-7.11.55,6.55,6.55,0,0,1-2.69-.77,44.28,44.28,0,0,0,6.43-.53,1.28,1.28,0,0,0,.68-1.57,18.31,18.31,0,0,1-.67-5.8,21.54,21.54,0,0,0,5.06-13.8c7.78-23,4.42-12.63,3.79-24.13l-7.5-5.55A11.32,11.32,0,0,1,54,72.25l10.59,7.84c.63,11.5,4,1.13-3.8,24.14A21.4,21.4,0,0,1,55.77,118Z"></path><path class="cls-3" d="M48.82,126.68h-.25c-2.39-.25-3.94-1.11-4.74-2.63a2.44,2.44,0,0,1,.33-2.45c1.13-1.86,5-5.07,6.69-6.11a115.78,115.78,0,0,1,1.73-14.37c0-1.85-.43-24.88.73-29.06a.77.77,0,0,1,.48-.51.75.75,0,0,1,.69.11l10.59,7.84a.74.74,0,0,1,.3.56,21.21,21.21,0,0,0,.92,5.82c.73,2.4.73,2.4-4,16.47l-.67,2a22.37,22.37,0,0,1-5.07,14,17.16,17.16,0,0,0,.64,5.27,2,2,0,0,1-1.08,2.49C55.25,126.44,50.07,126.68,48.82,126.68Zm5.72-53.12c-.85,6.19-.46,27.38-.46,27.61a.91.91,0,0,1,0,.17,113.68,113.68,0,0,0-1.74,14.6.73.73,0,0,1-.33.58c-4,2.71-7.3,6-6.85,6.82.56,1.06,1.7,1.64,3.58,1.84a53.75,53.75,0,0,0,6.74-.49.53.53,0,0,0,.26-.63A18.7,18.7,0,0,1,55,118a.77.77,0,0,1,.18-.45,20.74,20.74,0,0,0,4.88-13.27.68.68,0,0,1,0-.28l.71-2.12c4.61-13.61,4.61-13.61,4-15.56a22.3,22.3,0,0,1-1-5.81Z"></path><polyline class="cls-9" points="54.67 62.09 53.01 85.67 66.46 89.45 70.21 71.98"></polyline><polygon class="cls-4" points="70.22 71.98 66.47 89.45 53.01 85.68 53.35 80.83 63.42 83.65 66.44 69.58 70.22 71.98"></polygon><path class="cls-3" d="M66.46,90.2l-.2,0L52.81,86.4a.76.76,0,0,1-.55-.78L53.92,62a.76.76,0,0,1,.81-.7.75.75,0,0,1,.69.8l-1.62,23,12.1,3.4,3.58-16.7a.75.75,0,0,1,1.47.32L67.2,89.61a.79.79,0,0,1-.35.49A.76.76,0,0,1,66.46,90.2Z"></path><path class="cls-3" d="M161.45,127.48H90.37a1,1,0,0,1,0-2h71.08a1,1,0,0,1,0,2Z"></path><path class="cls-3" d="M85.57,127.48H78a1,1,0,0,1,0-2h7.57a1,1,0,0,1,0,2Z"></path><path class="cls-3" d="M71.92,127.48H31.8a1,1,0,1,1,0-2H71.92a1,1,0,0,1,0,2Z"></path></svg>