<?xml version="1.0" ?><svg enable-background="new 0 0 64 64" id="Слой_1" version="1.1" viewBox="0 0 64 64" xml:space="preserve" xmlns="http://www.w3.org/2000/svg" xmlns:xlink="http://www.w3.org/1999/xlink"><g id="row_4"><g id="chair"><rect fill="#3E2723" height="4" width="29" x="16" y="37"/><rect fill="#5D4037" height="2" width="30" x="16" y="47"/><path d="M51,37H16v-5h33c1.7,0,3,1.3,3,3v1C52,36.6,51.6,37,51,37z" fill="#F44336"/><path d="M18,35c0-10.9-1.4-21.5-4.1-31.8l-2.5,1.7C13.1,16.7,14,28.7,14,41c0,6.7-0.3,13.4-0.8,20h2.1    C17.1,52.5,18,43.8,18,35z" fill="#4E342E"/><path d="M49,37h-4v8c0,5.5,0.7,10.9,1.9,16H49V37z" fill="#4E342E"/></g></g></svg>