<svg id="Layer_1" viewBox="0 0 185 185" xmlns="http://www.w3.org/2000/svg"><defs><style>.cls-1{fill:#d9e2e9;}.cls-2{fill:#e8c79c;}.cls-3{fill:#d0aa79;}.cls-4{fill:#00063c;}.cls-5{fill:#6c95f8;}.cls-6{fill:#2f3a5a;}.cls-7{fill:#8fb6f8;}.cls-8{fill:#39476b;}.cls-9{fill:#e51b3a;}.cls-10{fill:#566ef5;}.cls-11{fill:#fc3133;}.cls-12{fill:#8ae0a1;}</style></defs><title></title><circle class="cls-1" cx="92.5" cy="92.5" r="90"></circle><path class="cls-2" d="M71.86,62.38c-6.43,1.44-18.56,7-18.56,7s-11.06-2.73-12.64-.68c-1,1.27-.69,3.41-.32,4.84a1,1,0,0,0,1.42.67c1.91-.85,5.81-.86,5.81-.86-.5.51-1.48,1.72-2.18,2.59a1.31,1.31,0,0,0,1.92,1.78,25.24,25.24,0,0,1,5.79-3.53c6.4,1.89,16.7-2.25,19.11-3.48a73.32,73.32,0,0,0,24.15-6.74l2.82-13.23C85.93,52.82,71.86,62.38,71.86,62.38Z"></path><path class="cls-3" d="M99.19,50.71,96.37,63.94a73.29,73.29,0,0,1-24.16,6.73c-2.41,1.24-12.71,5.38-19.12,3.49a25.07,25.07,0,0,0-5.78,3.54,1.34,1.34,0,0,1-1.76,0,1.32,1.32,0,0,1-.15-1.82c.18-.24.39-.51.62-.77l0,0a25.06,25.06,0,0,1,5.79-3.52c6.41,1.88,16.71-2.26,19.12-3.5A73.17,73.17,0,0,0,95.1,61.37l2.19-10.3C97.93,50.93,98.55,50.81,99.19,50.71Z"></path><path class="cls-4" d="M46.42,78.8a2.07,2.07,0,0,1-1.61-3.36l1-1.3a13.09,13.09,0,0,0-3.79.72,1.8,1.8,0,0,1-1.52,0,1.73,1.73,0,0,1-.94-1.14c-.43-1.68-.7-4,.46-5.49,1.81-2.34,11.31-.12,13.16.35,2-.92,12.38-5.52,18.33-6.88C73,60.69,86.29,52,99.06,50a.76.76,0,0,1,.86.9L97.1,64.1a.76.76,0,0,1-.39.5,74.3,74.3,0,0,1-24.28,6.81C69.8,72.72,59.79,76.73,53.16,75a23,23,0,0,0-5.34,3.28A2,2,0,0,1,46.42,78.8Zm1.15-6.23a.75.75,0,0,1,.54,1.27c-.37.38-1.13,1.28-2.13,2.54a.56.56,0,0,0,.07.78.55.55,0,0,0,.75,0,25.5,25.5,0,0,1,6-3.66.77.77,0,0,1,.52,0C59.5,75.27,69.68,71.13,71.87,70a.77.77,0,0,1,.27-.08,73.88,73.88,0,0,0,23.57-6.5l2.51-11.79C85.6,54,72.42,62.91,72.28,63a.62.62,0,0,1-.26.12c-6.17,1.37-17.9,6.68-18.4,6.91a.78.78,0,0,1-.5,0c-5-1.25-11.1-1.94-11.87-1s-.47,3.08-.18,4.19a.22.22,0,0,0,.13.17.3.3,0,0,0,.26,0c2-.9,5.95-.92,6.11-.92ZM71.86,62.38h0Z"></path><polygon class="cls-5" points="86.09 53.83 88.29 68 96.57 66.24 100.22 49.62 86.09 53.83"></polygon><path class="cls-4" d="M88.29,68.75a.7.7,0,0,1-.42-.13.76.76,0,0,1-.32-.5l-2.2-14.18a.75.75,0,0,1,.53-.83L100,48.91a.71.71,0,0,1,.72.17.73.73,0,0,1,.22.71L97.3,66.4a.73.73,0,0,1-.57.57l-8.28,1.77ZM86.93,54.36l2,12.74,7-1.49,3.27-14.9Z"></path><path class="cls-2" d="M96.24,102.57,93.73,83.23s-12.48.25-13.59.62L48.49,89.1l.94,7.21s17.67,5.78,29.79-.1C79.22,96.21,86.86,98.55,96.24,102.57Z"></path><path class="cls-3" d="M96.24,102.57c-9.39-4-17-6.36-17-6.36-12.12,5.88-29.78.1-29.78.1l-.94-7.2L49,89l.48,3.74s17.66,5.79,29.78-.09c0,0,7.38,2.25,16.54,6.14Z"></path><path class="cls-4" d="M96.24,103.32a.8.8,0,0,1-.3-.06C87.7,99.73,80.73,97.47,79.27,97c-12.23,5.73-29.35.24-30.07,0a.73.73,0,0,1-.51-.62l-.94-7.2a.76.76,0,0,1,.62-.84L80,83.12c1.5-.38,11.67-.6,13.73-.64a.77.77,0,0,1,.76.66L97,102.47a.76.76,0,0,1-.29.7A.74.74,0,0,1,96.24,103.32Zm-17-7.86a.6.6,0,0,1,.22,0c.07,0,7.13,2.19,15.89,5.87L93.07,84c-5.75.12-12,.35-12.7.56l-.11,0L49.33,89.72l.78,6c2.81.83,18.13,5,28.78-.19A.73.73,0,0,1,79.22,95.46Z"></path><path class="cls-6" d="M39.59,75.34l2.82-.29c-.13,0-1.06.51.2,10.16L44,92.86a.61.61,0,0,0,.36.45l1.54.63h0l.75,4.88-.23,0a13.44,13.44,0,0,1-4.59,0c-.16,0-2-7.66-2.91-18,0,0-.62-4.77.72-5.42Z"></path><path class="cls-4" d="M44.23,99.78a12.74,12.74,0,0,1-2.64-.24c-.45-.12-.69-.18-1.73-5.73-.53-2.86-1.27-7.43-1.74-13-.2-1.56-.5-5.36,1.15-6.15a.55.55,0,0,1,.25-.07l2.82-.29a.76.76,0,0,1,.82.64.77.77,0,0,1-.28.69c-.12.35-.49,2.09.48,9.47l1.32,7.54,1.46.59a.75.75,0,0,1,.45.59l.75,4.88a.75.75,0,0,1-.61.85l-.23,0A13.52,13.52,0,0,1,44.23,99.78Zm-1.89-1.62a14.33,14.33,0,0,0,3.4,0l-.56-3.72L44,94a1.36,1.36,0,0,1-.82-1l-1.34-7.65c-.68-5.27-.76-8-.58-9.42l-1.43.15c-.34.39-.53,2.41-.25,4.6A113.26,113.26,0,0,0,42.34,98.16Z"></path><path class="cls-7" d="M42.43,75s.63-.14,1.24.72a3.34,3.34,0,0,1,.42.72c.08.18.17.39.28.62s.08.19.13.29l0,0,.09.2c0,.08.07.15.11.22l.06.14.09.2c.05.08.09.17.13.25l.25.51a2,2,0,0,0,.1.21c.1.21.2.41.29.58a.67.67,0,0,0,.06.12.37.37,0,0,0,0,.11l.06.11,0,.07a.93.93,0,0,0,0,.1,1.47,1.47,0,0,0,.12.23l0,.05s5,6.35,5.19,7a4.26,4.26,0,0,1-.56,1.92l-.11.26c-.24.57-1.73,3.3.29,5.51A2.85,2.85,0,0,0,52,96a.66.66,0,0,1,.51.66c0,.36-1.29.89-2.73,1.36l-.12,0-.42.12-.17.06-.56.15-.22.06-.13,0-.73.18-.78.17-.68-4.45a.74.74,0,0,0-.46-.59l-1.06-.43a.78.78,0,0,1-.46-.58L42.62,85.2c-1.26-9.65-.33-10.13-.2-10.15Z"></path><path class="cls-4" d="M46.6,99.56a.76.76,0,0,1-.43-.14.75.75,0,0,1-.31-.5l-.68-4.45L44.12,94a1.49,1.49,0,0,1-.92-1.14l-1.32-7.56c-1.4-10.71-.27-10.91.41-11h.07a2,2,0,0,1,1.92,1,4.24,4.24,0,0,1,.51.86c.07.18.16.38.26.61l.13.27.06.14,1.07,2.21.06.12s.06.12.06.13l.08.15-.65.39.7-.29.11.21a74,74,0,0,1,5.27,7.19c.18.57-.08,1.23-.56,2.35l-.22.53c-.56,1.22-1.14,3,.24,4.53a2,2,0,0,0,.82.54,1.36,1.36,0,0,1,1,1.42c-.05.52-.33,1.07-3.25,2l-.74.23-.57.16-.23.06-.31-.69.19.72-.75.19c-.29.07-.56.13-.81.17ZM42.81,75.92c-.13.76-.26,3,.55,9.18l1.32,7.53,1.07.45a1.53,1.53,0,0,1,.92,1.17l.55,3.66.69-.18.15,0,.18,0,.56-.15.58-.18.12,0a15.63,15.63,0,0,0,1.9-.72,3.54,3.54,0,0,1-1.11-.81c-1.46-1.6-1.63-3.68-.5-6.16l.18-.41a9.41,9.41,0,0,0,.52-1.43c-.36-.65-2.81-3.88-5.05-6.74a.83.83,0,0,1-.08-.12l-.14-.28,0-.11-.1-.19.63-.43-.72.25-.36-.74,0-.09-.46-1L44,78.18l-.16-.34.62-.44-.67.33-.13-.27c-.13-.29-.22-.51-.3-.7a2.17,2.17,0,0,0-.31-.51A2.06,2.06,0,0,0,42.81,75.92Z"></path><path class="cls-4" d="M42.42,75.54a.5.5,0,0,1-.09-1h.2a.5.5,0,0,1,.39.59.49.49,0,0,1-.48.4Z"></path><path class="cls-2" d="M113.27,113s2.55-14,1-26l-13.58,2.31L100,112.86c.44,3.94,7.84,16.09,13.86,25.93l7.25.19A51.06,51.06,0,0,0,113.27,113Z"></path><path class="cls-3" d="M121.09,139l-3.41-.09a51.58,51.58,0,0,0-7.82-25s2.55-14,1-26l-10.17,1.73v-.35l13.57-2.31c1.51,12-1,26-1,26A50.92,50.92,0,0,1,121.09,139Z"></path><path class="cls-4" d="M121.09,139.73h0l-7.24-.19a.74.74,0,0,1-.62-.36c-7.39-12.06-13.54-22.36-14-26.24a.34.34,0,0,1,0-.1L100,89.21a.75.75,0,0,1,.63-.71l13.57-2.32a.77.77,0,0,1,.57.14.72.72,0,0,1,.3.51c1.39,11-.65,23.88-1,26A51.19,51.19,0,0,1,121.84,139a.75.75,0,0,1-.75.73Zm-6.82-1.68,6.06.16a51,51,0,0,0-7.7-24.85.79.79,0,0,1-.1-.54c0-.14,2.41-13.45,1.13-25l-12.19,2.08-.74,23C101.22,116.69,109,129.42,114.27,138.05Z"></path><path class="cls-6" d="M98.4,145.44l.16-2.83c0,.13.33,1.12,10.06,1.38l7.77-.14a.62.62,0,0,0,.5-.29l.86-1.42h0l4.93,0v.23a13.81,13.81,0,0,1-.76,4.52c-.07.15-7.88.82-18.29.09,0,0-4.81-.14-5.24-1.56Z"></path><path class="cls-4" d="M113.19,148.08c-2.64,0-5.91-.08-9.6-.33-1.58-.05-5.37-.34-5.9-2.09a.58.58,0,0,1,0-.26l.15-2.83a.76.76,0,0,1,.76-.71.78.78,0,0,1,.64.38c.32.18,2,.8,9.43,1l7.65-.14.81-1.35a.75.75,0,0,1,.65-.36h0l4.94,0a.74.74,0,0,1,.74.73v.23a14.6,14.6,0,0,1-.82,4.84c-.19.43-.29.66-5.93.83C115.71,148.06,114.53,148.08,113.19,148.08Zm-14-2.79c.34.4,2.31.9,4.51,1a112.46,112.46,0,0,0,17.7,0,14.49,14.49,0,0,0,.56-3.36h-3.76l-.64,1.06a1.34,1.34,0,0,1-1.13.65l-7.77.14c-5.31-.14-8-.49-9.39-.89Zm.14-2.69Z"></path><path class="cls-7" d="M98.55,142.59s0-.64.9-1.11a3.4,3.4,0,0,1,.77-.31l.66-.17.31-.09h0l.21-.06.24-.07.15,0,.2-.07.27-.08.55-.16.22-.07.62-.2.12,0,.12,0,.12,0,.08,0,.1,0,.25-.08h.05s7-3.95,7.71-4a4.36,4.36,0,0,1,1.81.86l.25.15c.52.32,3,2.21,5.49.56a3.05,3.05,0,0,0,.9-1,.65.65,0,0,1,.72-.4c.36.09.69,1.42.93,2.92,0,0,0,.08,0,.12s0,.29.07.43,0,.12,0,.18,0,.39.07.58a1.64,1.64,0,0,1,0,.22c0,.05,0,.09,0,.14,0,.26,0,.51.07.75s0,.55,0,.79l-4.5,0a.74.74,0,0,0-.65.37l-.59,1a.76.76,0,0,1-.64.36l-7.68.14c-9.72-.25-10.06-1.24-10.06-1.38Z"></path><path class="cls-4" d="M108.63,144.73c-10.8-.28-10.82-1.43-10.83-2.11v-.08a2.05,2.05,0,0,1,1.32-1.74,4.1,4.1,0,0,1,.93-.36l.63-.16.3-.09.11,0,2.38-.72.14,0,.1,0,.35.68-.25-.71.11,0,.29-.09c3.23-1.81,7.27-4,7.94-4.11s1.2.27,2.24.92l.48.3c1.12.74,2.81,1.59,4.51.46a2.26,2.26,0,0,0,.67-.73,1.37,1.37,0,0,1,1.55-.76c.51.13,1,.5,1.49,3.53l.1.74c0,.21.06.41.08.61l0,.23-.73.21.75-.08c0,.27,0,.53.06.77s0,.58,0,.83a.72.72,0,0,1-.21.54.62.62,0,0,1-.54.23l-4.5,0-.6,1a1.5,1.5,0,0,1-1.27.73Zm-9.15-2.38c.73.25,2.9.72,9.15.88l7.64-.14.61-1a1.51,1.51,0,0,1,1.29-.73h0l3.7,0c0-.23,0-.47-.07-.71v-.15l0-.19c0-.21,0-.39-.07-.58l-.09-.59s0-.12,0-.13a14.59,14.59,0,0,0-.42-2,3.58,3.58,0,0,1-1,1c-1.81,1.2-3.88,1-6.16-.46l-.38-.23a9.11,9.11,0,0,0-1.33-.75c-.7.26-4.27,2.18-7.44,3.95l-.13.06-.11,0-.19.07-.13,0-.19.06-.11,0-.34-.68.22.72-1.86.57-.17.05-.81.23-.68.18a2.18,2.18,0,0,0-.56.22A1.73,1.73,0,0,0,99.48,142.35Z"></path><path class="cls-4" d="M98.55,143.1a.5.5,0,0,1-.5-.5.41.41,0,0,1,0-.19.5.5,0,1,1,.46.69Z"></path><path class="cls-2" d="M98.73,27.06l-2,4.38.44,1.5A32.77,32.77,0,0,0,95,35.82c-.79,1.28.08,1.64,1.29,2,0,0-.25,1.48.61,1.88,0,0-1.78.82-.09,1.9,0,0,.46.62-.33,1.55S97,45.63,99,45.9a23.56,23.56,0,0,0,3.28.24l-1.4,6.72,14.7-.59s-2.1-9-2.17-10.56a8.45,8.45,0,0,1,.59-4c1.15-2.15,2.26-4.73,1.92-6.88s.45-4.27-2.39-6.6S101.89,23,100.22,22.38,98.73,27.06,98.73,27.06Z"></path><path class="cls-4" d="M100.91,53.61a.77.77,0,0,1-.57-.26.74.74,0,0,1-.16-.64l1.21-5.84c-.58,0-1.41-.09-2.46-.23A4.1,4.1,0,0,1,95.6,44.5a1.75,1.75,0,0,1,.28-1.79,1,1,0,0,0,.28-.57,1.75,1.75,0,0,1-.85-1.53,1.49,1.49,0,0,1,.44-1,3,3,0,0,1-.28-1.26A2.28,2.28,0,0,1,94,37.16a2,2,0,0,1,.34-1.73,29.18,29.18,0,0,1,2-2.66L96,31.65a.75.75,0,0,1,0-.53l2-4.21c0-1.17,0-4.2,1.2-5.06a1.39,1.39,0,0,1,1.3-.18,18,18,0,0,0,3.3.18c3.44,0,8.16.08,10.26,1.81a6.44,6.44,0,0,1,2.55,5.63,13.34,13.34,0,0,0,.11,1.44c.39,2.51-1,5.39-2,7.34a7.64,7.64,0,0,0-.5,3.61c.06,1.22,1.57,7.94,2.15,10.42a.75.75,0,0,1-.14.63.73.73,0,0,1-.56.29l-14.7.59Zm1.39-8.22a.75.75,0,0,1,.58.27.71.71,0,0,1,.16.63l-1.2,5.78,12.83-.51c-.55-2.39-1.92-8.48-2-9.81a8.75,8.75,0,0,1,.67-4.39c.94-1.76,2.16-4.34,1.84-6.4a11.46,11.46,0,0,1-.12-1.62,5.06,5.06,0,0,0-2-4.52c-1.7-1.39-6.29-1.44-9.32-1.47a15.4,15.4,0,0,1-3.79-.26A9.52,9.52,0,0,0,99.48,27a.8.8,0,0,1-.07.34L97.48,31.5l.36,1.23a.72.72,0,0,1-.15.69,34.3,34.3,0,0,0-2.08,2.8.92.92,0,0,0-.19.45,3.63,3.63,0,0,0,1.08.49A.75.75,0,0,1,97,38c-.06.37,0,1,.19,1.08a.77.77,0,0,1,.43.69.76.76,0,0,1-.44.68,1,1,0,0,0-.37.29,3.58,3.58,0,0,0,.38.29.69.69,0,0,1,.19.19A2,2,0,0,1,97,43.68.23.23,0,0,0,97,44a2.69,2.69,0,0,0,2.12,1.2,23.83,23.83,0,0,0,3.17.24Z"></path><path class="cls-8" d="M98.73,27.06s1.37-.86,4,.37,3.41,3,3,5a18.94,18.94,0,0,0-.48,2.87l1.42.33s.93-2.92,2.63-2.72,2.22,1.94,2,4.32-.49,3.74,1.39,4.35a3.23,3.23,0,0,0,.81.16,8.45,8.45,0,0,1,.59-4c1.15-2.15,2.26-4.73,1.92-6.88s.45-4.27-2.39-6.6S101.89,23,100.22,22.38,98.73,27.06,98.73,27.06Z"></path><path class="cls-6" d="M114,37.72a8.49,8.49,0,0,0-.59,4,3.75,3.75,0,0,1-.81-.16,1.9,1.9,0,0,1-1.52-1.8,2.39,2.39,0,0,1,.13-.28c1.15-2.15,2.26-4.72,1.92-6.87s.46-4.28-2.39-6.6c-2.36-1.93-8.81-1.54-11.9-1.69.18-1.17.55-2.21,1.35-1.93,1.67.58,10.49-.47,13.34,1.85s2,4.46,2.39,6.61S115.18,35.56,114,37.72Z"></path><path class="cls-4" d="M113.45,42.46h-.07a4.46,4.46,0,0,1-1-.2c-2.35-.76-2.16-2.62-1.93-4.77l0-.37c.15-1.51,0-3.33-1.32-3.49-.82-.11-1.58,1.44-1.83,2.2a.74.74,0,0,1-.89.5L105.05,36a.77.77,0,0,1-.58-.77,20.89,20.89,0,0,1,.5-3c.39-1.79-.45-3.14-2.57-4.13s-3.24-.43-3.29-.4a.78.78,0,0,1-.74,0,.75.75,0,0,1-.39-.62c0-1,0-4.33,1.19-5.24a1.39,1.39,0,0,1,1.3-.18,18,18,0,0,0,3.3.18c3.44,0,8.16.08,10.26,1.81a6.44,6.44,0,0,1,2.55,5.63,13.34,13.34,0,0,0,.11,1.44c.39,2.51-1,5.39-2,7.34a7.64,7.64,0,0,0-.5,3.61.74.74,0,0,1-.74.78Zm-4.36-10.34.26,0c.94.11,3.08.83,2.64,5.13l0,.38c-.23,2.21-.2,2.77.73,3.12a7.46,7.46,0,0,1,.69-3.41c.94-1.76,2.16-4.34,1.84-6.4a11.46,11.46,0,0,1-.12-1.62,5.06,5.06,0,0,0-2-4.52c-1.7-1.39-6.29-1.44-9.32-1.47a15.4,15.4,0,0,1-3.79-.26,7.26,7.26,0,0,0-.49,3,6.29,6.29,0,0,1,3.56.69c2.73,1.28,3.93,3.35,3.39,5.81-.21,1-.33,1.68-.39,2.13l.13,0C106.59,33.76,107.54,32.12,109.09,32.12Z"></path><path class="cls-9" d="M115.5,103.05c1-4.21,1.91-13.3-.83-21.61l-18.1,2.63,2,19.56Z"></path><path class="cls-4" d="M98.54,104.13a.51.51,0,0,1-.5-.44l-2-19.57a.51.51,0,0,1,.43-.55L114.59,81a.5.5,0,0,1,.55.34c2.54,7.69,2,16.59.85,21.87a.5.5,0,0,1-.47.39l-17,.58ZM97.12,84.49,99,103.12l16.11-.56A43.39,43.39,0,0,0,114.32,82Zm18.38,18.56h0Z"></path><path class="cls-5" d="M114.58,60.31l-.46-12.17L101,48.68c-2.62,1.56-5.34,4.36-7.06,10.2A22.58,22.58,0,0,0,93,65.8a68.39,68.39,0,0,0,2.47,16l-1.16,1.73h20c0-.3.08-.59.1-.89C115.07,80.43,114.87,69.33,114.58,60.31Z"></path><path class="cls-10" d="M111.37,49.34a4.77,4.77,0,0,1,2.82.85l-.07-2-4.69.19.06,1.36A5,5,0,0,1,111.37,49.34Z"></path><path class="cls-10" d="M114.5,58.17a4.47,4.47,0,0,1-1.27.76,4.61,4.61,0,0,1-3.18,1.15h-.17c.26,8.77.42,19-.18,21.12a8.46,8.46,0,0,1-.11.88H95.3l-1,1.47h20c0-.3.09-.6.11-.89.63-2.23.43-13.32.14-22.33Z"></path><path class="cls-4" d="M114.34,84.29h-20a.77.77,0,0,1-.66-.4.76.76,0,0,1,0-.77l1-1.44a70,70,0,0,1-2.4-15.86,23.36,23.36,0,0,1,.94-7.15c1.5-5.09,3.91-8.57,7.39-10.64a.75.75,0,0,1,.36-.1l13.15-.53a.77.77,0,0,1,.78.71.74.74,0,0,1-.72.78l-13,.53c-3,1.88-5.2,5-6.56,9.67a21.66,21.66,0,0,0-.88,6.7A68.72,68.72,0,0,0,96.19,81.6a.74.74,0,0,1-.1.63l-.37.56h18c0-.07,0-.13,0-.19a.88.88,0,0,1,0-.16c.27-1,.65-5.11.11-22.1a.76.76,0,0,1,.73-.78.76.76,0,0,1,.77.73c.41,12.94.36,20.5-.14,22.48,0,.3-.07.59-.11.88A.75.75,0,0,1,114.34,84.29Z"></path><path class="cls-11" d="M85.57,103.34s32.11,7.37,28.87-20.69a8.13,8.13,0,0,0,.2-1.06H95.4c0,.15-12.08.59-12.08.59S85.57,103.34,85.57,103.34Z"></path><path class="cls-9" d="M85.56,103.34s-.23-2.15-.55-5.08c4.18.8,28.23,4.47,28.48-16.67h1.15a8.48,8.48,0,0,1-.2,1.06C117.68,110.7,85.56,103.34,85.56,103.34Z"></path><path class="cls-4" d="M94.25,105a43.71,43.71,0,0,1-8.85-.9.78.78,0,0,1-.58-.65c-2.37-21.31-2.34-21.35-2.13-21.67a.77.77,0,0,1,.6-.33l11.56-.35a.76.76,0,0,1,.55-.24h19.24a.73.73,0,0,1,.57.26.75.75,0,0,1,.18.59,8.42,8.42,0,0,1-.19,1c.87,7.73-.84,13.57-5.07,17.35C105.71,104,99.39,105,94.25,105Zm-8-2.26c2.75.52,15.77,2.58,22.88-3.79,3.87-3.46,5.41-8.91,4.57-16.2a1,1,0,0,1,0-.29l0-.1H96a.73.73,0,0,1-.52.22l-11.37.35C84.38,85.66,85.46,95.61,86.25,102.72ZM83.32,82.18h0Z"></path><path class="cls-2" d="M110.06,60.06l12,7s-7.65,4.77-9,13.36a25,25,0,0,1-5.65,3.74,1.32,1.32,0,0,0,.8,2.5c1.08-.26,2.59-.64,3.27-.88,0,0-1.66,3.53-3.24,4.9a1,1,0,0,0,0,1.57c1.13.94,2.94,2.12,4.52,1.77,2.52-.57,4.74-11.74,4.74-11.74s11.13-7.88,13.6-13.78c1.74-4.15-4.76-12-8.75-16.35"></path><path class="cls-3" d="M131.15,68.51c-2.47,5.9-13.59,13.78-13.59,13.78S115.34,93.46,112.81,94c-1.4.31-3-.58-4.11-1.43a2.8,2.8,0,0,0,1.08,0c2.53-.57,4.74-11.74,4.74-11.74s11.13-7.88,13.6-13.78c1.48-3.53-3-9.76-6.82-14.19l1.1-.71C126.4,56.47,132.89,64.35,131.15,68.51Z"></path><path class="cls-4" d="M112.22,94.84a7.61,7.61,0,0,1-4.41-2,1.77,1.77,0,0,1-.64-1.33,1.82,1.82,0,0,1,.63-1.39A13.17,13.17,0,0,0,110.06,87l-1.63.41a2.06,2.06,0,0,1-1.25-3.92A23.7,23.7,0,0,0,112.42,80c1.16-6.88,6.12-11.29,8.26-12.91l-11-6.43a.74.74,0,0,1-.27-1,.75.75,0,0,1,1-.27l12,7a.72.72,0,0,1,.37.63.74.74,0,0,1-.35.65c-.07,0-7.37,4.71-8.62,12.84a.69.69,0,0,1-.24.45,25.56,25.56,0,0,1-5.87,3.88.56.56,0,0,0-.33.67.57.57,0,0,0,.67.4c1.57-.38,2.71-.68,3.21-.86a.77.77,0,0,1,.8.21.75.75,0,0,1,.12.82c-.07.15-1.75,3.69-3.43,5.14a.34.34,0,0,0-.11.24.26.26,0,0,0,.09.19c.89.73,2.56,1.91,3.88,1.61s3.16-6,4.18-11.14h0a.79.79,0,0,1,.3-.47c.45-.32,11-7.88,13.34-13.46,1.15-2.74-2-8.41-8.61-15.55a.75.75,0,0,1,0-1.06.77.77,0,0,1,1.07,0c5,5.45,10.7,12.84,8.89,17.15-2.33,5.56-12,12.72-13.62,13.93-.41,2.15-2.43,11.4-5.25,12A3.82,3.82,0,0,1,112.22,94.84Z"></path><path class="cls-5" d="M113.66,48.16l-3.6,11.9,7.72,6.18,9.87-9.64C125.92,54.48,119.77,48,113.66,48.16Z"></path><path class="cls-10" d="M127.65,56.61l-9.87,9.63-3.6-2.88,7.34-7.15a31.42,31.42,0,0,0-8.43-6.59l.57-1.46C119.77,48,125.92,54.48,127.65,56.61Z"></path><path class="cls-4" d="M117.78,67a.74.74,0,0,1-.47-.16l-7.72-6.19a.75.75,0,1,1,.94-1.17l7.2,5.77,8.89-8.68c-1.59-1.82-7.15-7.65-12.78-7.65h-.18a.75.75,0,0,1,0-1.5c7.32-.12,14.3,8.36,14.59,8.72a.75.75,0,0,1-.06,1l-9.87,9.64A.73.73,0,0,1,117.78,67Z"></path><line class="cls-12" x1="47.15" x2="46.6" y1="147.33" y2="147.33"></line><path class="cls-4" d="M47.15,148.33H46.6a1,1,0,1,1,0-2h.55a1,1,0,1,1,0,2Z"></path><line class="cls-12" x1="56.05" x2="50.14" y1="147.33" y2="147.33"></line><path class="cls-4" d="M56.05,148.33H50.14a1,1,0,0,1,0-2h5.91a1,1,0,0,1,0,2Z"></path><line class="cls-12" x1="133.82" x2="59.7" y1="147.33" y2="147.33"></line><path class="cls-4" d="M133.82,148.33H59.7a1,1,0,0,1,0-2h74.12a1,1,0,0,1,0,2Z"></path></svg>