<svg id="Layer_1" viewBox="0 0 185 185" xmlns="http://www.w3.org/2000/svg"><defs><style>.cls-1{fill:#d9e2e9;}.cls-2{fill:#e8c79c;}.cls-3{fill:#d0aa79;}.cls-4{fill:#00063c;}.cls-5{fill:#2f3a5a;}.cls-6{fill:#8fb6f8;}.cls-7{fill:#39476b;}.cls-8{fill:#e51b3a;}.cls-9{fill:#6c95f8;}.cls-10{fill:#566ef5;}.cls-11{fill:#fc3133;}</style></defs><title></title><circle class="cls-1" cx="92.5" cy="92.5" r="90"></circle><path class="cls-2" d="M102.18,97.2,82.61,91.9S75.46,103,75.38,104.19l-5.17,33.48,7.29,2S87.69,124,86.88,110A139.4,139.4,0,0,0,102.18,97.2Z"></path><path class="cls-3" d="M86.88,110c.81,14-9.38,29.64-9.38,29.64l-7.29-2,.26-1.68,2.33.64S83,121,82.18,107A139.36,139.36,0,0,0,96.05,95.55l6.13,1.66A138.88,138.88,0,0,1,86.88,110Z"></path><path class="cls-4" d="M77.5,140.4l-.2,0-7.29-2a.74.74,0,0,1-.54-.84l5.16-33.48c.08-1.21,5.17-9.21,7.35-12.59a.75.75,0,0,1,.83-.31l19.57,5.3a.75.75,0,0,1,.32,1.26,143.23,143.23,0,0,1-15,12.64c.6,14-9.1,29-9.52,29.68A.77.77,0,0,1,77.5,140.4Zm-6.45-3.28,6.11,1.66c1.64-2.67,9.68-16.47,9-28.73a.74.74,0,0,1,.31-.66,138,138,0,0,0,14.27-11.81L83,92.77c-3.28,5.09-6.66,10.68-6.83,11.51Z"></path><path class="cls-5" d="M53.45,140.73l.84-2.82c0,.13.07,1.22,9.83,3.86L72,143.53a.6.6,0,0,0,.57-.16l1.22-1.23h0l5,1.23,0,.24A14.07,14.07,0,0,1,76.85,148c-.1.14-8.16-1.11-18.49-4.4,0,0-4.83-1.32-4.91-2.86Z"></path><path class="cls-4" d="M76.71,148.73a34.87,34.87,0,0,1-5.42-.92c-3-.63-7.64-1.75-13.16-3.51-1.57-.43-5.33-1.65-5.43-3.53a.6.6,0,0,1,0-.26l.85-2.82a.75.75,0,0,1,.9-.51.76.76,0,0,1,.54.53c.27.25,1.77,1.3,9.3,3.33l7.78,1.75,1.17-1.18a.74.74,0,0,1,.71-.2l5,1.23a.75.75,0,0,1,.55.89l-.05.24a14.77,14.77,0,0,1-2,4.67C77.33,148.6,77.23,148.73,76.71,148.73Zm-22.49-8c.22.49,2.09,1.48,4.34,2.1a115.83,115.83,0,0,0,17.9,4.35,14.63,14.63,0,0,0,1.42-3.3L74,143l-.92.93a1.38,1.38,0,0,1-1.27.37L64,142.5c-5.39-1.46-8-2.48-9.29-3.23Zm.81-2.7Z"></path><path class="cls-6" d="M54.29,137.89s.11-.66,1.19-.91a3.68,3.68,0,0,1,.85-.12h2l.3,0,.59,0,.24,0,.67,0h.59l.27,0h0s8.09-2.26,8.8-2.19c.37,0,1,.66,1.61,1.31l.21.21c.45.45,2.48,3,5.41,1.91a3,3,0,0,0,1.15-.77.7.7,0,0,1,.84-.23c.33.18.34,1.6.21,3.17,0,.05,0,.09,0,.13s0,.3,0,.45a1.37,1.37,0,0,0,0,.19c0,.2,0,.4-.07.6l0,.23a.77.77,0,0,0,0,.15l-.12.77c0,.29-.1.57-.15.81l-4.54-1.12a.77.77,0,0,0-.75.21l-.84.84a.79.79,0,0,1-.73.21l-7.79-1.74c-9.76-2.64-9.86-3.73-9.83-3.86Z"></path><path class="cls-4" d="M72.09,144.27a2.07,2.07,0,0,1-.35,0L64,142.49c-10.8-2.92-10.54-4.11-10.39-4.75,0,0,0-.05,0-.07a2.12,2.12,0,0,1,1.74-1.42,4.65,4.65,0,0,1,1-.14h1.16l2.55-.14h.25l.2.74-.07-.75h.11l.15.74,0-.75.23,0h0c3.09-.86,8.27-2.28,9-2.2s1.16.6,2,1.47l.41.43c1,1,2.46,2.31,4.48,1.58a2.33,2.33,0,0,0,.86-.59,1.4,1.4,0,0,1,1.72-.37c.48.25.88.73.62,3.9l-.08.79c0,.2,0,.41-.07.61s0,.16,0,.25l-.76,0,.74.1c0,.27-.08.54-.12.79s-.1.59-.15.84a.75.75,0,0,1-.92.58L74.05,143l-.88.85A1.49,1.49,0,0,1,72.09,144.27Zm-16.86-6.4c.64.42,2.68,1.43,9.08,3.16l7.76,1.74.88-.85a1.54,1.54,0,0,1,1.46-.41l3.77.93h0c0-.24.08-.49.11-.75l0-.16,0-.2c0-.21,0-.4.07-.6l.06-.62.76-.07-.75-.06a14.78,14.78,0,0,0,.06-2.18,3.54,3.54,0,0,1-1.25.78c-2.11.76-4.16.1-6.09-2l-.32-.33a7.92,7.92,0,0,0-1.21-1.11c-.46,0-4.7,1.13-8.46,2.19l-.17,0-.31,0h-.12l-.17-.74.06.75h-.23l-.18-.74,0,.75-2,.12h-.58l-.13-.74,0,.75H56.33a2.08,2.08,0,0,0-.63.09A1.62,1.62,0,0,0,55.23,137.87Zm-.94,0h0Z"></path><path class="cls-4" d="M54.29,138.65a.41.41,0,0,1-.16,0,.74.74,0,0,1-.57-.89.9.9,0,0,1,.11-.27.75.75,0,0,1,1.32.69A.74.74,0,0,1,54.29,138.65Z"></path><path class="cls-2" d="M107.91,111.06S103.1,95.85,94.69,86.49l-10.22,10,13.36,20.63c2.71,3.1,16.23,9.1,27.21,13.93l6.31-4.14A72,72,0,0,0,107.91,111.06Z"></path><path class="cls-3" d="M131.35,126.94,125,131.06c-11-4.83-24.5-10.82-27.21-13.92L84.48,96.51l3.26-3.2,13.31,20.57c2.71,3.11,16.24,9.1,27.21,13.93l2.41-1.58C131.12,126.68,131.35,126.94,131.35,126.94Z"></path><path class="cls-4" d="M125,131.82a.63.63,0,0,1-.3-.07c-13-5.7-24.82-11.07-27.48-14.12l-.06-.08L83.84,96.92A.76.76,0,0,1,84,96L94.17,86a.75.75,0,0,1,1.08,0c7.83,8.72,12.5,22.18,13.27,24.52a73.52,73.52,0,0,1,23.38,15.92.73.73,0,0,1,.19.6.75.75,0,0,1-.33.53l-6.31,4.13A.69.69,0,0,1,125,131.82ZM98.43,116.69c2.71,3,16.91,9.29,26.54,13.53l5.21-3.42a72.86,72.86,0,0,0-22.56-15,.8.8,0,0,1-.43-.47c0-.15-4.65-14.54-12.54-23.71l-9.21,9Z"></path><path class="cls-5" d="M115.8,145.9l-1.55-2.51c.08.11,1,.77,9.41-4.79l6.55-4.72a.62.62,0,0,0,.26-.54l-.11-1.73h0l4.23-2.91.14.2a14.18,14.18,0,0,1,2,4.31c0,.17-6.24,5.37-15.56,10.91,0,0-4.19,2.74-5.4,1.78Z"></path><path class="cls-4" d="M116.52,146.85a1.89,1.89,0,0,1-1.19-.36.65.65,0,0,1-.17-.2l-1.55-2.5a.76.76,0,0,1,.22-1,.77.77,0,0,1,.75-.05c.37,0,2.15-.47,8.67-4.74l6.47-4.67-.11-1.65a.72.72,0,0,1,.32-.66l4.23-2.91a.73.73,0,0,1,1,.17l.15.2a15,15,0,0,1,2.16,4.61c.09.44.14.71-4.57,4.18-2.43,1.8-6.37,4.56-11.35,7.52C120.51,145.47,118.18,146.85,116.52,146.85Zm-.18-1.5c.51.16,2.49-.58,4.45-1.85A118,118,0,0,0,135.93,133a15,15,0,0,0-1.53-3.26L131.13,132l.09,1.3a1.36,1.36,0,0,1-.57,1.2l-6.55,4.72c-4.67,3.06-7.18,4.35-8.58,4.81Z"></path><path class="cls-6" d="M114.23,143.38s-.42-.52.11-1.48a3.34,3.34,0,0,1,.48-.73l.46-.53.21-.26,0,0,.14-.18.16-.2.1-.12c0-.06.09-.12.14-.17a2.11,2.11,0,0,1,.19-.23l.36-.47.15-.19.41-.53.09-.11a.86.86,0,0,1,.07-.1.76.76,0,0,0,.08-.11l0-.06.07-.09.17-.21,0,0s3.68-7.55,4.19-8a4.55,4.55,0,0,1,2.06-.34l.29,0c.64,0,3.87.13,5-2.77a3.08,3.08,0,0,0,.18-1.38.69.69,0,0,1,.38-.77c.36-.14,1.43.8,2.52,1.94l.09.1.31.33.13.14.4.45.15.17.1.12.49.59c.19.23.37.45.51.65l-3.85,2.66a.77.77,0,0,0-.34.7l.07,1.18a.77.77,0,0,1-.33.69l-6.47,4.67c-8.46,5.55-9.33,4.9-9.41,4.79Z"></path><path class="cls-4" d="M114.42,144.24a.83.83,0,0,1-.79-.41l0-.06a2.1,2.1,0,0,1,.09-2.24,5,5,0,0,1,.58-.86l.45-.51.54-.67.68.35-.59-.46,1.25-1.59.09-.12.06-.08.68.34-.6-.44s.06-.08.07-.08l.65.37-.59-.46.16-.21c1.35-2.78,3.78-7.67,4.31-8.17s1.22-.47,2.45-.54l.21.74,0-.74.41,0c1.41,0,3.37-.31,4.16-2.3a2.29,2.29,0,0,0,.13-1,1.41,1.41,0,0,1,.87-1.54c.5-.19,1.13-.17,3.32,2.12l.07.08.34.36.12.13c.15.17.29.32.42.48l.16.18.09.11c.18.21.36.41.52.61l.53.68a.72.72,0,0,1,.13.57.7.7,0,0,1-.31.49L131.14,132l.06,1.23a1.51,1.51,0,0,1-.64,1.34l-6.47,4.67C117.83,143.32,115.44,144.24,114.42,144.24Zm2.76-6,.6.46-1.12,1.42-.07.08-.06.09a1.74,1.74,0,0,0-.12.14l-.55.68-.48.56a2.37,2.37,0,0,0-.35.52,1.9,1.9,0,0,0-.19.47c.74-.2,2.86-1.06,8.4-4.7l6.45-4.64-.06-1.23a1.53,1.53,0,0,1,.66-1.36l3.2-2.2h0l-.48-.59-.11-.12-.13-.15-.4-.45-.42-.45-.09-.1a14.87,14.87,0,0,0-1.6-1.49,3.63,3.63,0,0,1-.25,1.45c-.83,2.09-2.68,3.18-5.51,3.25h-.55a8.69,8.69,0,0,0-1.5.16c-.44.61-2.36,4.38-4,7.79a.54.54,0,0,1-.07.13l-.2.26-.08.1-.13.17-.07.09Z"></path><path class="cls-4" d="M114.24,144.14a.74.74,0,0,1-.61-.31.82.82,0,0,1-.12-.25.75.75,0,1,1,1.16.42A.69.69,0,0,1,114.24,144.14Z"></path><path class="cls-2" d="M89.33,54.39,81.16,66.2s-7.87-5.09-16.54-2.54a26.25,26.25,0,0,1-6-3.67,1.37,1.37,0,0,0-2,1.86c.72.9,1.74,2.16,2.27,2.69,0,0-4.06,0-6-.89a1.06,1.06,0,0,0-1.48.69c-.38,1.49-.7,3.71.33,5,1.65,2.12,13.14-.71,13.14-.71s12.33,7,19,6.71,13-19.52,13-19.52a12.57,12.57,0,0,0,0-2.31Z"></path><path class="cls-3" d="M96.86,55.86S90.45,75.1,83.8,75.38s-19-6.71-19-6.71-11.49,2.83-13.14.71c-.88-1.13-.78-2.91-.5-4.34a2.94,2.94,0,0,0,.5,1c1.65,2.13,13.14-.71,13.14-.71s12.33,7,19,6.72C89.5,71.81,95,57.63,96.48,53.59l.33,0A13.48,13.48,0,0,1,96.86,55.86Z"></path><path class="cls-4" d="M83.42,76.14c-6.33,0-16.87-5.67-18.7-6.68-3.1.75-11.89,2.62-13.62.38-1.2-1.55-.92-3.94-.47-5.69a1.79,1.79,0,0,1,1-1.17,1.86,1.86,0,0,1,1.55,0,13.68,13.68,0,0,0,4,.76c-.34-.4-.72-.87-1.15-1.41a2.11,2.11,0,0,1,3.1-2.86,24.06,24.06,0,0,0,5.56,3.41C72.15,60.79,78.89,64,80.94,65.2L88.72,54a.73.73,0,0,1,.53-.31l7.47-.85a.8.8,0,0,1,.56.16.78.78,0,0,1,.27.51,13.17,13.17,0,0,1,0,2.44.65.65,0,0,1,0,.19c-.67,2-6.77,19.74-13.73,20ZM64.83,67.92a.78.78,0,0,1,.37.09c4.22,2.38,13.52,6.82,18.57,6.62S94.34,61,96.11,55.71a11.82,11.82,0,0,0,0-1.33l-6.36.72-8,11.52a.74.74,0,0,1-1,.21c-.08,0-7.69-4.87-15.92-2.45a.71.71,0,0,1-.21,0,22.44,22.44,0,0,1-6.53-3.87.61.61,0,0,0-.89.84c1,1.31,1.83,2.24,2.21,2.64a.74.74,0,0,1,.16.82.76.76,0,0,1-.69.45h0c-.18,0-4.25,0-6.35-1a.37.37,0,0,0-.29,0,.31.31,0,0,0-.16.2c-.29,1.16-.66,3.27.2,4.39s7.06.32,12.37-1A.55.55,0,0,1,64.83,67.92Z"></path><path class="cls-2" d="M91.27,27.47,89.33,31.6,89.75,33a29,29,0,0,0-2,2.73c-.75,1.2.08,1.54,1.21,1.93,0,0-.23,1.4.58,1.78,0,0-1.68.77-.08,1.79,0,0,.43.58-.31,1.46s.47,2.29,2.43,2.55a21.75,21.75,0,0,0,3.1.23l-1.32,6.35,13.88-.56s-2-8.51-2-10a7.91,7.91,0,0,1,.55-3.78c1.09-2,2.13-4.46,1.81-6.49s.43-4-2.26-6.24-11-1.2-12.59-1.75S91.27,27.47,91.27,27.47Z"></path><path class="cls-4" d="M93.33,52.59a.74.74,0,0,1-.57-.27.76.76,0,0,1-.17-.63l1.14-5.47c-.55,0-1.32-.09-2.28-.22a3.86,3.86,0,0,1-3.17-2,1.65,1.65,0,0,1,.27-1.72.89.89,0,0,0,.25-.5A1.69,1.69,0,0,1,88,40.26a1.6,1.6,0,0,1,.41-.91,3,3,0,0,1-.25-1.16A2.13,2.13,0,0,1,86.76,37a1.92,1.92,0,0,1,.32-1.67,28.85,28.85,0,0,1,1.84-2.5l-.31-1a.72.72,0,0,1,0-.52l1.86-4c0-1.3,0-4,1.15-4.79a1.33,1.33,0,0,1,1.27-.18,17,17,0,0,0,3.1.17c3.26,0,7.72.07,9.72,1.71a6.2,6.2,0,0,1,2.43,5.35,11.62,11.62,0,0,0,.09,1.35c.38,2.39-.9,5.12-1.89,7a7,7,0,0,0-.46,3.39c0,1.14,1.48,7.49,2,9.83a.78.78,0,0,1-.13.63.73.73,0,0,1-.57.29l-13.88.56Zm1.32-7.85a.74.74,0,0,1,.57.27.72.72,0,0,1,.16.63l-1.12,5.41,12-.48c-.53-2.29-1.81-8-1.86-9.23a8.28,8.28,0,0,1,.64-4.16c.89-1.66,2-4.09,1.73-6a11.75,11.75,0,0,1-.11-1.54,4.74,4.74,0,0,0-1.88-4.24C103.21,24.08,98.88,24,96,24a15.72,15.72,0,0,1-3.52-.23A8.44,8.44,0,0,0,92,27.45a.83.83,0,0,1-.07.34l-1.82,3.87.34,1.15a.78.78,0,0,1-.15.7,28.61,28.61,0,0,0-2,2.63,1,1,0,0,0-.18.4,4.33,4.33,0,0,0,1,.43.75.75,0,0,1,.49.83c-.06.38,0,.91.16,1a.74.74,0,0,1,.43.68.75.75,0,0,1-.44.68,1.4,1.4,0,0,0-.32.24s.12.11.33.24a.86.86,0,0,1,.2.18,1.92,1.92,0,0,1-.34,2.39s-.07.09,0,.22a2.48,2.48,0,0,0,2,1.11,22.49,22.49,0,0,0,3,.22Z"></path><path class="cls-7" d="M91.27,27.47s1.29-.81,3.77.35,3.22,2.84,2.81,4.69a18.45,18.45,0,0,0-.45,2.71l1.34.32s.88-2.76,2.48-2.57,2.1,1.83,1.87,4.07-.47,3.54,1.3,4.11a3.09,3.09,0,0,0,.78.16,7.91,7.91,0,0,1,.55-3.78c1.09-2,2.13-4.46,1.81-6.49s.43-4-2.26-6.24-11-1.2-12.59-1.75S91.27,27.47,91.27,27.47Z"></path><path class="cls-5" d="M105.72,37.54a7.85,7.85,0,0,0-.55,3.77,3.19,3.19,0,0,1-.77-.15,1.81,1.81,0,0,1-1.35-1.22,2.39,2.39,0,0,1,.13-.28c1.09-2,2.13-4.47,1.81-6.5s.43-4-2.26-6.23c-2.26-1.85-8.51-1.45-11.38-1.6.13-1.27.48-2.59,1.33-2.29,1.58.56,9.91-.43,12.6,1.76s1.93,4.2,2.25,6.24S106.81,35.5,105.72,37.54Z"></path><path class="cls-4" d="M105.17,42.06h-.07a4.6,4.6,0,0,1-.94-.19c-2.26-.73-2.07-2.5-1.85-4.55l0-.35c.15-1.41.06-3.11-1.21-3.26-.74-.08-1.46,1.38-1.68,2.06a.76.76,0,0,1-.89.5L97.23,36a.76.76,0,0,1-.58-.77,19.09,19.09,0,0,1,.47-2.83c.37-1.66-.42-2.92-2.4-3.85s-3-.41-3.07-.38a.78.78,0,0,1-.74,0,.75.75,0,0,1-.39-.62c0-1.22,0-4.14,1.14-5a1.33,1.33,0,0,1,1.27-.18,17,17,0,0,0,3.1.17c3.26,0,7.72.07,9.72,1.71a6.2,6.2,0,0,1,2.43,5.35,11.62,11.62,0,0,0,.09,1.35c.38,2.39-.9,5.12-1.89,7a7,7,0,0,0-.46,3.39.74.74,0,0,1-.23.57A.75.75,0,0,1,105.17,42.06Zm-4.12-9.85h.26c.9.11,3,.79,2.53,4.9l0,.36c-.22,2-.2,2.55.61,2.88a7,7,0,0,1,.65-3.18c.89-1.66,2-4.09,1.73-6a11.75,11.75,0,0,1-.11-1.54,4.74,4.74,0,0,0-1.88-4.24C103.21,24.08,98.88,24,96,24a15.72,15.72,0,0,1-3.52-.23A6.58,6.58,0,0,0,92,26.47a6.13,6.13,0,0,1,3.33.67c2.61,1.22,3.75,3.18,3.23,5.53-.19.9-.3,1.55-.36,2l0,0C98.68,33.73,99.58,32.21,101.05,32.21Z"></path><path class="cls-8" d="M108.46,107.3c1-4.37,2-13.83-.87-22.47L88.77,87.56l2,20.35Z"></path><path class="cls-4" d="M90.82,108.66a.76.76,0,0,1-.74-.68L88,87.64a.75.75,0,0,1,.64-.82l18.81-2.73a.75.75,0,0,1,.82.51c2.66,8,2.14,17.34.89,22.86a.78.78,0,0,1-.71.59l-17.63.6Zm17.64-1.36h0ZM89.59,88.2l1.91,18.93,16.35-.56a44.93,44.93,0,0,0-.78-20.9Z"></path><path class="cls-9" d="M107,50.21l-13.68.56c-2.72,1.62-5.55,4.54-7.33,10.6a23.48,23.48,0,0,0-1,7.2,71.18,71.18,0,0,0,2.57,16.65L86.42,87h20.82c.05-.31.09-.62.12-.92.65-2.31.44-13.85.14-23.23"></path><path class="cls-10" d="M107.48,62.38h-5.16l0,.48c.3,9.38.51,20.91-.15,23.23,0,.3-.06.61-.1.92h5.15c.05-.31.09-.62.11-.92.66-2.32.45-13.85.15-23.23Z"></path><path class="cls-4" d="M107.24,87.76H86.42a.75.75,0,0,1-.62-1.17l1-1.5a73,73,0,0,1-2.5-16.5,24.22,24.22,0,0,1,1-7.43c1.55-5.28,4.06-8.89,7.67-11a.74.74,0,0,1,.35-.1L107,49.46a.76.76,0,0,1,.78.72.74.74,0,0,1-.72.78l-13.48.55c-3.19,2-5.43,5.26-6.84,10.07a22.54,22.54,0,0,0-.92,7A70.77,70.77,0,0,0,88.35,85a.76.76,0,0,1-.1.64l-.42.62h18.76c0-.08,0-.15,0-.23a.77.77,0,0,1,0-.15c.29-1,.68-5.32.12-23a.76.76,0,0,1,.73-.78.74.74,0,0,1,.77.73c.42,13.46.37,21.32-.15,23.37,0,.31-.07.61-.12.92A.74.74,0,0,1,107.24,87.76Z"></path><path class="cls-11" d="M90.82,107.91s17-6.38,16.54-21.82a9.21,9.21,0,0,0,.2-1.11h-20a2.46,2.46,0,0,0,.07.24L76.47,99.42C76.38,99.56,90.82,107.91,90.82,107.91Z"></path><path class="cls-8" d="M107.56,85a7.13,7.13,0,0,1-.21,1.11c.43,15.44-16.52,21.81-16.52,21.81l-6.42-3.72c2.74-1.18,14.8-7.05,15.91-19.2Z"></path><path class="cls-4" d="M90.82,108.66a.7.7,0,0,1-.37-.11c-14.59-8.43-14.62-8.53-14.71-9a.73.73,0,0,1,.11-.59l11-14a.72.72,0,0,1,.14-.51.77.77,0,0,1,.61-.31h20a.77.77,0,0,1,.57.26.78.78,0,0,1,.18.6c-.07.46-.13.81-.2,1.08.35,15.72-16.85,22.37-17,22.44A.86.86,0,0,1,90.82,108.66ZM77.55,99.25c2,1.26,8.64,5.11,13.33,7.82,2.3-1,16.1-7.4,15.73-21a.6.6,0,0,1,0-.23.54.54,0,0,0,0-.15H88.18Z"></path><path class="cls-2" d="M102.8,62.6l12.49,7.29s-8,5-9.32,13.89a25.89,25.89,0,0,1-5.87,3.89,1.36,1.36,0,0,0,.83,2.59c1.12-.27,2.69-.66,3.4-.91,0,0-1.73,3.68-3.37,5.09a1.07,1.07,0,0,0,0,1.64c1.19,1,3.07,2.2,4.71,1.83,2.62-.58,4.93-12.2,4.93-12.2s11.56-8.19,14.13-14.32c1.81-4.32-4.94-12.52-9.1-17"></path><path class="cls-3" d="M124.72,71.39c-2.57,6.13-14.13,14.32-14.13,14.33s-2.3,11.61-4.93,12.19c-1.42.32-3-.55-4.2-1.44a3,3,0,0,0,.94,0c2.62-.58,4.93-12.2,4.93-12.2S118.9,76,121.47,69.9c1.53-3.66-3.1-10.12-7.07-14.73l1.23-.78C119.78,58.86,126.53,67.07,124.72,71.39Z"></path><path class="cls-4" d="M105,98.73a7.83,7.83,0,0,1-4.56-2.07,1.82,1.82,0,0,1-.66-1.37,1.84,1.84,0,0,1,.65-1.41,14.4,14.4,0,0,0,2.39-3.32L101.1,91a2.11,2.11,0,0,1-1.28-4,24,24,0,0,0,5.45-3.58c1.22-7.18,6.42-11.78,8.63-13.45l-11.48-6.7a.75.75,0,1,1,.75-1.29l12.49,7.29a.75.75,0,0,1,.38.63.75.75,0,0,1-.36.65c-.07,0-7.67,4.9-9,13.37a.69.69,0,0,1-.24.45,26.65,26.65,0,0,1-6.1,4,.61.61,0,0,0-.36.73.62.62,0,0,0,.74.43c1.63-.39,2.81-.7,3.33-.88a.76.76,0,0,1,.81.2.75.75,0,0,1,.12.82c-.07.16-1.82,3.84-3.56,5.34a.37.37,0,0,0-.13.27.27.27,0,0,0,.11.22c.92.76,2.68,2,4.06,1.68,1.17-.26,3.13-5.47,4.36-11.61a.88.88,0,0,1,.21-.39h0l.1-.08c.47-.33,11.44-8.19,13.87-14,1.2-2.87-2.06-8.77-9-16.2a.75.75,0,0,1,1.1-1c5.25,5.66,11.12,13.33,9.25,17.8C123,77.46,113,84.9,111.27,86.15c-.78,3.78-2.75,11.89-5.45,12.5A4.13,4.13,0,0,1,105,98.73Z"></path><path class="cls-9" d="M102.8,62.6l8,6.43,10.26-10c-1.79-2.21-8.19-8.91-14.54-8.78"></path><path class="cls-10" d="M121.08,59,110.82,69l-2-1.59,7-6.81c-1.35-1.69-4.41-8.49-9.07-10.39h-.18C112.9,50.1,119.29,56.8,121.08,59Z"></path><path class="cls-4" d="M110.82,69.78a.78.78,0,0,1-.47-.17l-8-6.43a.74.74,0,0,1-.12-1,.75.75,0,0,1,1.06-.12l7.5,6L120.06,59c-1.65-1.88-7.57-8.14-13.5-8a.78.78,0,0,1-.77-.73.75.75,0,0,1,.74-.77h.19c7.51,0,14.64,8.68,15,9.06a.75.75,0,0,1-.06,1l-10.26,10A.74.74,0,0,1,110.82,69.78Z"></path><path class="cls-4" d="M142,149h-7.4a1,1,0,0,1,0-2H142a1,1,0,1,1,0,2Z"></path><path class="cls-4" d="M129.72,149H43a1,1,0,0,1,0-2h86.69a1,1,0,1,1,0,2Z"></path></svg>