<svg id="Layer_1" viewBox="0 0 185 185" xmlns="http://www.w3.org/2000/svg"><defs><style>.cls-1{fill:#d9e2e9;}.cls-2{fill:#e8c79c;}.cls-3{fill:#00063c;}.cls-4{fill:#2f3a5a;}.cls-5{fill:#8fb6f8;}.cls-6{fill:#d0aa79;}.cls-7{fill:#39476b;}.cls-8{fill:#6c95f8;}.cls-9{fill:#566ef5;}.cls-10{fill:#fc3133;}.cls-11{fill:#e51b3a;}</style></defs><title></title><circle class="cls-1" cx="92.5" cy="92.5" r="90"></circle><path class="cls-2" d="M59,121.91l20.24-5s-.7-27.89-1.14-29.29L72.47,48l-9,1s-7.71,21.87-.72,37.15C62.74,86.15,63.55,98,59,121.91Z"></path><path class="cls-3" d="M59,122.66a.79.79,0,0,1-.52-.2.8.8,0,0,1-.22-.69c4.2-22.2,3.78-34.07,3.71-35.43-6.94-15.37.43-36.68.75-37.59a.75.75,0,0,1,.63-.49l9-1a.74.74,0,0,1,.82.64l5.66,39.59c.44,2.13,1,24.81,1.15,29.4a.74.74,0,0,1-.57.75l-20.24,5Zm5-73c-1,3.17-6.84,22.5-.6,36.14a.77.77,0,0,1,.07.26c0,.12.74,11.83-3.51,34.8l18.53-4.54c-.29-11-.8-27.33-1.1-28.5a.36.36,0,0,1,0-.1l-5.56-38.9Z"></path><path class="cls-4" d="M89.88,37.33l.28,3.52c0-.16-.6-1.34-12.67,0l-9.58,1.46a.75.75,0,0,0-.57.43l-.83,1.91h0l-6.1.79,0-.29a17.09,17.09,0,0,1,.19-5.71c.06-.2,9.61-2.32,22.59-3.13,0,0,6-.63,6.74,1.06Z"></path><path class="cls-3" d="M60.4,46.15a.76.76,0,0,1-.74-.64l0-.28a17.56,17.56,0,0,1,.21-6c.12-.44.21-.75,7-1.87,3.57-.58,9.29-1.37,16.22-1.8,1.49-.16,6.54-.53,7.46,1.49a.77.77,0,0,1,.07.26l.28,3.52a.75.75,0,0,1-1.37.47c-.37-.16-2.39-.73-12,.3L68,43l-.82,1.9a.73.73,0,0,1-.59.44l-6.11.79ZM61.19,40a17.5,17.5,0,0,0-.14,4.6l5-.64.65-1.52a1.49,1.49,0,0,1,1.14-.87l9.59-1.46c7-.75,10.3-.71,11.94-.41l-.17-2.1c-.48-.57-3.21-.83-5.93-.55A141.48,141.48,0,0,0,61.19,40Z"></path><path class="cls-5" d="M90.17,40.87s.17.79-.93,1.53a4.49,4.49,0,0,1-.9.51c-.23.08-.5.19-.79.32l-.36.15-.07,0-.25.11-.28.12-.17.08-.25.11-.32.15-.64.29L85,44.4l-.74.34-.15.07-.14.06-.14.07-.09,0-.12.06-.29.14-.06,0s-8.06,6-8.88,6.28A5.59,5.59,0,0,1,72,50.73l-.32-.15c-.7-.31-4.06-2.25-6.88.22a3.6,3.6,0,0,0-1,1.36.82.82,0,0,1-.83.62c-.46-.05-1.09-1.64-1.62-3.45l0-.15-.15-.53-.06-.22-.18-.7-.06-.27,0-.17c-.07-.31-.14-.62-.2-.91s-.14-.68-.19-1L66,44.69a1,1,0,0,0,.75-.56l.56-1.31a1,1,0,0,1,.73-.56l9.47-1.44c12.07-1.3,12.65-.13,12.67,0Z"></path><path class="cls-3" d="M63.06,53.53h-.17c-.56-.06-1.2-.42-2.25-4l0-.16-.15-.53,0-.18c-.08-.28-.14-.52-.2-.76,0-.08,0-.18-.06-.28l0-.15c-.08-.33-.15-.65-.22-.95s-.14-.69-.19-1a.76.76,0,0,1,.64-.87l5.57-.72a.21.21,0,0,0,.16-.11l.57-1.31a1.68,1.68,0,0,1,1.3-1l9.47-1.44c13.21-1.42,13.42,0,13.52.66a.17.17,0,0,1,0,.07A2.34,2.34,0,0,1,89.66,43a4.85,4.85,0,0,1-1,.59c-.23.08-.48.19-.77.31l-2.57,1.15-.74.35-.15.07-.12,0-.43-.63.33.68-.13.06-.4-.64.27.7-.3.14c-2.39,1.8-8.2,6.11-9,6.36-.65.18-1.49-.17-2.8-.76l-.64-.29c-1.56-.75-3.86-1.55-5.86.2a2.94,2.94,0,0,0-.75,1.09A1.54,1.54,0,0,1,63.06,53.53ZM61.3,46.05a1,1,0,0,1,0,.17c.06.29.13.59.2.9l.11.42.18.7.05.2L62,49l0,.13a14.16,14.16,0,0,0,1,2.79,4.39,4.39,0,0,1,1.14-1.65c2-1.72,4.5-1.87,7.5-.42l.61.27a7.26,7.26,0,0,0,1.81.68c.58-.25,5.39-3.75,8.59-6.15a.57.57,0,0,1,.13-.08l.35-.17.13-.06.45.61-.32-.67.11-.05.22-.11.79-.37,1.23-.56.09,0,1.31-.57.81-.33a3.2,3.2,0,0,0,.69-.39,1.77,1.77,0,0,0,.61-.61c-.7-.21-3.22-.57-11.79.36L68.15,43a.21.21,0,0,0-.16.11l-.57,1.32a1.69,1.69,0,0,1-1.34,1Z"></path><path class="cls-3" d="M90.17,41.62h-.11a.75.75,0,0,1-.64-.75.76.76,0,0,1,.68-.75.76.76,0,1,1,.07,1.51Z"></path><path class="cls-2" d="M56.16,117.48l18.92-1.94s-.21-28.06-.62-29.46L68.21,46.65l-8.84.94S54.63,70.71,61,86.05C61,86.05,59.84,93.65,56.16,117.48Z"></path><path class="cls-6" d="M65.35,86.06s-1.12,7.49-4.75,31l-4.44.45C59.85,93.65,61,86.06,61,86.06,54.63,70.71,59.38,47.6,59.38,47.6l8.83-1,.07.47-4.54.49S59,70.71,65.35,86.06Z"></path><path class="cls-3" d="M56.16,118.23a.77.77,0,0,1-.55-.24.72.72,0,0,1-.19-.63c3.34-21.6,4.59-29.86,4.8-31.21C54,70.77,58.44,48.39,58.64,47.44a.73.73,0,0,1,.65-.59l8.84-1a.75.75,0,0,1,.82.63L75.2,86c.39,1.34.59,24.87.63,29.58a.76.76,0,0,1-.68.75l-18.92,1.93ZM60,48.28c-.64,3.54-4,23.81,1.68,37.49a.68.68,0,0,1,0,.4s-1.11,7.39-4.68,30.46l17.27-1.76c-.09-11.12-.31-27.42-.58-28.59L67.58,47.47Z"></path><path class="cls-4" d="M85.45,36l.28,3.52c0-.16-.6-1.33-12.67,0l-9.58,1.45a.74.74,0,0,0-.57.44l-.83,1.9h0L56,44l0-.29A16.89,16.89,0,0,1,56.12,38c.05-.2,9.61-2.31,22.59-3.13,0,0,6-.63,6.74,1.06Z"></path><path class="cls-3" d="M56,44.77a.75.75,0,0,1-.74-.63l0-.29a17.56,17.56,0,0,1,.21-6c.12-.43.21-.75,7.05-1.86,3.57-.58,9.28-1.37,16.21-1.81,1.5-.15,6.55-.52,7.47,1.5a.72.72,0,0,1,.07.25l.28,3.52a.75.75,0,0,1-1.37.48c-.37-.17-2.4-.74-12,.29l-9.55,1.46-.82,1.89a.78.78,0,0,1-.59.45l-6.11.79Zm.79-6.18a17.4,17.4,0,0,0-.15,4.6l5-.65L62.22,41a1.5,1.5,0,0,1,1.14-.88L73,38.7c7-.75,10.3-.72,11.93-.42l-.17-2.1c-.47-.57-3.2-.83-5.92-.54A139.94,139.94,0,0,0,56.76,38.59Z"></path><path class="cls-5" d="M85.74,39.5s.17.78-.93,1.52a3.93,3.93,0,0,1-.91.51l-.78.32-.36.16-.07,0-.25.11-.28.12-.17.08-.25.11-.32.14-.64.3-.27.12-.73.34-.15.07-.14.07-.14.06-.09,0-.12,0-.3.14,0,0s-8.06,6.05-8.88,6.28a5.31,5.31,0,0,1-2.38-.76l-.32-.15c-.7-.31-4.06-2.24-6.88.22a3.53,3.53,0,0,0-.95,1.37.82.82,0,0,1-.84.61c-.45,0-1.08-1.64-1.62-3.45,0-.05,0-.1,0-.15l-.15-.52-.06-.22-.18-.7c0-.09-.05-.18-.07-.27s0-.12,0-.17c-.08-.32-.14-.62-.2-.91S56,44.33,56,44l5.56-.72a.94.94,0,0,0,.75-.56l.57-1.31a1,1,0,0,1,.73-.56l9.47-1.44c12.06-1.29,12.65-.12,12.67,0Z"></path><path class="cls-3" d="M58.63,52.16h-.17c-.56-.07-1.2-.42-2.25-4a.69.69,0,0,1-.05-.17c0-.16-.1-.34-.15-.52l-.06-.2c-.07-.26-.13-.51-.19-.74s0-.19-.07-.28l0-.16c-.08-.33-.15-.64-.21-.94s-.14-.7-.19-1a.73.73,0,0,1,.13-.57.76.76,0,0,1,.51-.29l5.57-.72a.19.19,0,0,0,.15-.12l.57-1.31a1.71,1.71,0,0,1,1.31-1L73,38.7c13.2-1.42,13.42,0,13.52.67a.13.13,0,0,1,0,.06,2.39,2.39,0,0,1-1.26,2.22,5.14,5.14,0,0,1-1.06.58l-.76.31L80.1,44l-.16.07-.12.06-.11,0-.11.06-.41-.64.32.68-.28.13c-2.45,1.82-8.26,6.14-9.11,6.38-.66.19-1.49-.16-2.8-.76l-.64-.29c-1.56-.75-3.86-1.54-5.86.21a2.9,2.9,0,0,0-.75,1.08A1.57,1.57,0,0,1,58.63,52.16Zm-1.76-7.49c0,.06,0,.12,0,.17.06.3.13.6.2.9l.1.42c.06.25.12.47.18.7l.06.2c0,.19.1.36.15.52l0,.13a14.84,14.84,0,0,0,1,2.79,4.41,4.41,0,0,1,1.15-1.64c2-1.73,4.5-1.87,7.5-.43l.51.24a7.46,7.46,0,0,0,1.9.71c.59-.24,5.39-3.75,8.6-6.15l.12-.08.45.62-.33-.67.24-.12.13,0,.43.62-.32-.68.26-.12.46.61-.32-.68,2.85-1.3.44.63-.3-.69.37-.16.82-.33a3.2,3.2,0,0,0,.69-.39,1.69,1.69,0,0,0,.61-.61c-.7-.2-3.22-.56-11.79.36l-9.44,1.43a.2.2,0,0,0-.15.12L63,43.05a1.69,1.69,0,0,1-1.34,1Z"></path><path class="cls-3" d="M85.74,40.25h-.11a.75.75,0,0,1-.64-.75.75.75,0,0,1,1.5-.08,1.34,1.34,0,0,1,0,.2A.75.75,0,0,1,85.74,40.25Z"></path><path class="cls-2" d="M150.32,113.83l-4.72-2.08-1.6.51a34.22,34.22,0,0,0-3.13-2.22c-1.38-.82-1.74.13-2.15,1.42,0,0-1.59-.22-2,.7,0,0-.91-1.87-2,0,0,0-.64.51-1.65-.3s-2.59.59-2.82,2.81a25.29,25.29,0,0,0-.18,3.51l-7.21-1.32,1,15.68s9.57-2.47,11.22-2.58a9.11,9.11,0,0,1,4.29.52c2.32,1.18,5.1,2.3,7.39,1.89s4.57.38,7-2.72,1.07-12.49,1.65-14.29S150.32,113.83,150.32,113.83Z"></path><path class="cls-3" d="M123.82,133.24a.71.71,0,0,1-.44-.15.73.73,0,0,1-.31-.56l-1-15.68a.75.75,0,0,1,.25-.61.72.72,0,0,1,.63-.17l6.33,1.16c0-.62.06-1.53.18-2.69a4.27,4.27,0,0,1,2.18-3.56,1.81,1.81,0,0,1,1.86.24,1,1,0,0,0,.67.3,1.83,1.83,0,0,1,1.59-1,1.62,1.62,0,0,1,1,.46,3,3,0,0,1,1.38-.34,2.42,2.42,0,0,1,1.26-1.61,2,2,0,0,1,1.81.31,31.33,31.33,0,0,1,2.9,2l1.22-.39a.75.75,0,0,1,.53,0l4.56,2c1.23,0,4.46-.08,5.39,1.13a1.4,1.4,0,0,1,.22,1.34,19.9,19.9,0,0,0-.11,3.55c0,3.67.12,8.69-1.66,11a6.92,6.92,0,0,1-5.91,2.85,12.59,12.59,0,0,0-1.54.14c-2.66.49-5.76-.88-7.86-2a8.21,8.21,0,0,0-3.9-.44c-1.3.09-8.44,1.87-11.08,2.55Zm12.34-4.11a8,8,0,0,1,3.51.63c1.9,1,4.7,2.21,6.91,1.82a13.17,13.17,0,0,1,1.72-.17c1.71-.1,3.18-.18,4.82-2.27,1.45-1.87,1.38-6.78,1.34-10a16,16,0,0,1,.19-4c-.25-.35-2.34-.61-4.29-.5a1,1,0,0,1-.34-.06l-4.46-2-1.33.43a.8.8,0,0,1-.7-.13,32.89,32.89,0,0,0-3-2.17c-.37-.22-.52-.19-.52-.19-.18.08-.45.92-.54,1.2a.75.75,0,0,1-.82.52c-.42-.06-1.09,0-1.2.26a.75.75,0,0,1-.67.44.77.77,0,0,1-.69-.42,1.16,1.16,0,0,0-.36-.43,2,2,0,0,0-.36.45.81.81,0,0,1-.18.19,2,2,0,0,1-2.58-.31.31.31,0,0,0-.35,0A2.94,2.94,0,0,0,131,114.7a24.21,24.21,0,0,0-.17,3.39.75.75,0,0,1-.25.6.78.78,0,0,1-.63.18l-6.27-1.15.87,13.81c2.5-.63,9-2.27,10.48-2.37Z"></path><path class="cls-7" d="M150.32,113.83s1,1.44-.29,4.27-3.13,3.72-5.24,3.31a20,20,0,0,0-3.07-.44l-.32,1.52s3.14.92,3,2.74-2,2.42-4.56,2.22-4-.44-4.61,1.58a3.88,3.88,0,0,0-.16.88,9.11,9.11,0,0,1,4.29.52c2.32,1.18,5.1,2.3,7.39,1.89s4.57.38,7-2.72,1.07-12.49,1.65-14.29S150.32,113.83,150.32,113.83Z"></path><path class="cls-4" d="M153.7,129.6c-2.41,3.09-4.69,2.3-7,2.71s-5.06-.69-7.39-1.88a9.06,9.06,0,0,0-4.28-.51,4.26,4.26,0,0,1,.15-.88c.59-2,2-1.81,4.38-1.61h0a8.92,8.92,0,0,0,4.5.61c2.3-.41,4.58.38,7-2.71,1.78-2.27,1.54-7.91,1.51-11.48,1.49.11,3.1.45,2.78,1.46C154.78,117.11,156.13,126.5,153.7,129.6Z"></path><path class="cls-3" d="M145.7,133.15A15.86,15.86,0,0,1,139,131.1a8.21,8.21,0,0,0-3.9-.44.69.69,0,0,1-.58-.22.77.77,0,0,1-.22-.58,4.91,4.91,0,0,1,.19-1c.74-2.5,2.71-2.34,5-2.15l.4,0c1.63.13,3.61,0,3.75-1.54.1-1-1.89-1.79-2.43-2a.74.74,0,0,1-.52-.88l.32-1.51a.74.74,0,0,1,.75-.6,21.46,21.46,0,0,1,3.2.45c1.94.38,3.38-.56,4.4-2.87s.38-3.52.35-3.57a.75.75,0,0,1,0-.74.77.77,0,0,1,.62-.41c1.06-.06,4.59-.16,5.57,1.12a1.4,1.4,0,0,1,.22,1.34,19.9,19.9,0,0,0-.11,3.55c0,3.67.12,8.69-1.66,11a6.92,6.92,0,0,1-5.91,2.85,12.59,12.59,0,0,0-1.54.14A6.3,6.3,0,0,1,145.7,133.15Zm-9.54-4a8,8,0,0,1,3.51.63c1.9,1,4.7,2.21,6.91,1.82a13.17,13.17,0,0,1,1.72-.17c1.71-.1,3.18-.18,4.82-2.27,1.45-1.87,1.38-6.78,1.34-10a16,16,0,0,1,.19-4c-.21-.29-1.69-.52-3.3-.53a6.63,6.63,0,0,1-.64,3.85c-1.65,3.75-4.21,4.11-6.06,3.74-1.08-.21-1.85-.31-2.33-.37l0,.23c1.08.44,3,1.48,2.85,3.3-.12,1.23-1,3.25-5.37,2.9l-.4,0c-2.45-.21-3-.15-3.4,1Z"></path><path class="cls-8" d="M124.52,116.85c-2.08-2.83-5.6-9.95-12.47-11.28a26.07,26.07,0,0,0-8-.27,78.79,78.79,0,0,0-18.08,4.6l-3.46,2.59,1.36,20.26c.34,0,18.75.74,29.05-.59,5.79-.4,11.09,3,13.82-.67Z"></path><path class="cls-9" d="M126.71,131.49c-2.74,3.66-42.54,1.28-42.88,1.26l-.35-5.11c3.6.13,19.15.57,28.3-.61,5.79-.39,11.1,3,13.82-.67l-1.49-10c.14.17.28.34.41.52Z"></path><path class="cls-3" d="M108,134.3c-9.33,0-19.48-.52-24.22-.8a.79.79,0,0,1-.74-.7l-1.36-20.26a.78.78,0,0,1,.3-.65l3.46-2.59a.7.7,0,0,1,.17-.09,79.65,79.65,0,0,1,18.27-4.66,26.69,26.69,0,0,1,8.27.29c6.08,1.17,9.68,6.66,11.83,9.94.41.62.77,1.18,1.1,1.62a.85.85,0,0,1,.14.34l2.19,14.64a.79.79,0,0,1-.14.56C125.94,133.77,117.4,134.3,108,134.3ZM84.53,132c19,1.09,38.75,1.14,41.38-.81l-2.11-14.09c-.31-.44-.65-1-1-1.54-2.16-3.28-5.41-8.24-10.86-9.29a25.59,25.59,0,0,0-7.81-.27,78.66,78.66,0,0,0-17.8,4.52l-3,2.29Z"></path><path class="cls-10" d="M85.93,109.9A27.87,27.87,0,0,0,81,110l-1.77-9.71-22.36-1L55.18,113C55,113,54,130.59,54,130.59s16.82,6,31.56,2A154.55,154.55,0,0,1,85.93,109.9Z"></path><path class="cls-11" d="M85.35,125.38a59,59,0,0,1-11.84-.49,13.39,13.39,0,0,1-11.44-14.11c.21-3.41.41-6.27.48-6.29l.62-4.92-6.27-.28L55.17,113C55,113,54,130.59,54,130.59s16.83,6,31.56,2C85.59,132.64,85.38,130.05,85.35,125.38Z"></path><path class="cls-3" d="M74.49,134.75a68.42,68.42,0,0,1-20.71-3.45.75.75,0,0,1-.49-.75c.68-12.46.89-16.38,1.21-17.65h-.07l1.73-13.7a.72.72,0,0,1,.78-.65l22.36,1a.76.76,0,0,1,.71.62l1.65,9c4.37-.23,4.54-.08,4.78.15a.76.76,0,0,1,.24.55V110a158.42,158.42,0,0,0-.34,22.62.75.75,0,0,1-.55.79A44.07,44.07,0,0,1,74.49,134.75Zm-19.67-4.69c2.9.94,17.23,5.17,30,2a164.6,164.6,0,0,1,.33-21.48c-.69,0-2,0-4,.15a.74.74,0,0,1-.79-.61L78.64,101l-21.08-.93-1.64,13a.66.66,0,0,1,0,.15C55.72,114.23,55.17,123.58,54.82,130.06Z"></path><path class="cls-2" d="M77.9,122.45c-7.33.48-21.65,4.53-21.65,4.53s-11.73-4.88-13.83-2.9c-1.3,1.24-1.34,3.65-1.17,5.29.07.72-1.1,4.38,5.75,4.83a17.57,17.57,0,0,0,8.21-1.94c6.74,3.17,18.81.35,21.68-.61,27.79,1.42,15.31.94,27.78-3.33l5.22-13C104.89,115.33,77.9,122.45,77.9,122.45Z"></path><path class="cls-6" d="M109.89,115.31l-5.22,13c-12.47,4.27,0,4.75-27.78,3.33-2.88.95-14.93,3.78-21.68.61A17.55,17.55,0,0,1,47,134.2c-6.87-.46-5.69-4.11-5.76-4.83,0-.3-.06-.63-.07-1,.62,1,2.06,2,5.36,2.21a17.7,17.7,0,0,0,8.21-1.94c6.75,3.16,18.81.35,21.68-.61,27.79,1.42,15.3.94,27.78-3.33l3.71-9.23A16.49,16.49,0,0,1,109.89,115.31Z"></path><path class="cls-3" d="M47.71,135c-.25,0-.5,0-.76,0-2.67-.18-4.54-.86-5.56-2a4.14,4.14,0,0,1-.9-3.23c0-.1,0-.18,0-.24-.19-1.9-.1-4.47,1.41-5.9,2.21-2.1,11.27,1.37,14.39,2.65,2-.55,14.67-4,21.48-4.49,1.84-.48,27.14-7.12,32.11-7.14h0a.74.74,0,0,1,.62.33.76.76,0,0,1,.08.7l-5.22,13a.75.75,0,0,1-.46.43,24.72,24.72,0,0,0-6.14,2.83c-2.4,1.54-2.4,1.54-19.35.67L77,132.41c-3.08,1-14.76,3.71-21.76.68A18.64,18.64,0,0,1,47.71,135Zm-3.56-10.63a1.83,1.83,0,0,0-1.21.29c-1.12,1.06-1.07,3.38-.95,4.67a2.8,2.8,0,0,1,0,.49,2.71,2.71,0,0,0,.54,2.14c.75.86,2.28,1.37,4.53,1.52a16.86,16.86,0,0,0,7.81-1.85.72.72,0,0,1,.67,0c6.55,3.08,18.51.23,21.12-.64a.86.86,0,0,1,.28,0l2.56.13c16.47.85,16.48.85,18.47-.43a25.33,25.33,0,0,1,6.14-2.88l4.65-11.58c-6.92.79-30.4,7-30.65,7l-.15,0c-7.07.48-20.91,4.35-21.49,4.51a.78.78,0,0,1-.5,0C51.6,125.86,46.54,124.34,44.15,124.34Zm33.75-1.89h0Z"></path><polyline class="cls-8" points="111.62 112.92 89.6 117.49 89.62 133.5 111.84 132.29"></polyline><polygon class="cls-9" points="111.84 132.29 89.62 133.5 89.6 117.49 89.61 117.49 89.62 128.37 111.78 127.15 111.84 132.29"></polygon><path class="cls-3" d="M111.84,134.28h0l-22.21,0a.75.75,0,0,1-.75-.75l0-16a.75.75,0,0,1,.6-.73l22-4.58a.75.75,0,0,1,.31,1.47L90.35,118.1l0,14.65,21.47,0a.75.75,0,0,1,0,1.5Z"></path><path class="cls-3" d="M158,135.22H33a1,1,0,0,1,0-2H158a1,1,0,0,1,0,2Z"></path></svg>